<?xml version="1.0" encoding="UTF-8" standalone="no"?>
<!DOCTYPE svg PUBLIC "-//W3C//DTD SVG 1.1//EN" "http://www.w3.org/Graphics/SVG/1.1/DTD/svg11.dtd">
<svg width="100%" height="100%" viewBox="0 0 21 20" version="1.1" xmlns="http://www.w3.org/2000/svg" xmlns:xlink="http://www.w3.org/1999/xlink" xml:space="preserve" xmlns:serif="http://www.serif.com/" style="fill-rule:evenodd;clip-rule:evenodd;stroke-linejoin:round;stroke-miterlimit:2;">
    <path d="M13.699,0.707C16.447,1.802 18.597,4.082 19.516,6.914C18.656,6.91 17.251,6.927 16.914,7.068C14.795,7.914 12.991,9.192 11.566,10.984C11.435,11.149 11.318,11.324 11.203,11.5C11.174,11.547 11.165,11.603 11.177,11.657C11.56,13.026 12.105,14.324 12.911,15.501C13.551,16.435 14.302,17.258 15.3,17.824C15.313,17.831 15.324,17.843 15.353,17.866C14.953,18.038 14.531,18.155 14.1,18.212C12.377,18.447 10.776,18.087 9.333,17.116C8.291,16.411 7.548,15.472 7.212,14.239C7.198,14.188 7.185,14.139 7.17,14.091C7.163,14.076 7.153,14.063 7.143,14.051C6.839,14.156 6.527,14.254 6.224,14.376C6.08,14.434 6.002,14.402 5.898,14.297C5.355,13.737 4.9,13.109 4.45,12.476C4.435,12.454 4.421,12.43 4.408,12.406L4.989,11.673C5.623,11.958 6.288,12.128 6.96,12.274C7.175,12.321 7.393,12.357 7.61,12.393C7.706,12.409 7.76,12.438 7.775,12.55C7.825,12.857 7.935,13.152 8.099,13.418L8.598,13.127C8.363,12.781 8.316,12.392 8.279,11.998C8.279,11.96 8.193,11.907 8.142,11.899C7.256,11.784 6.384,11.574 5.543,11.272C5.052,11.101 4.597,10.839 4.201,10.501C3.885,10.239 3.669,9.876 3.589,9.473C5.058,10.178 6.546,10.726 8.179,10.848C8.197,10.658 8.213,10.478 8.23,10.287C7.965,10.251 7.71,10.222 7.458,10.181C6.465,10.012 5.499,9.714 4.583,9.295C3.864,8.975 3.369,8.418 3.011,7.728C2.978,7.65 2.95,7.569 2.928,7.487C4.609,8.548 6.39,9.187 8.344,9.354C8.359,9.165 8.374,8.982 8.389,8.796C8.046,8.747 7.715,8.71 7.389,8.652C6.206,8.439 5.069,8.069 4.041,7.456C3.407,7.078 2.903,6.525 2.694,5.772C2.685,5.739 2.683,5.704 2.672,5.643C4.521,6.871 6.534,7.62 8.712,8.01L8.806,7.442C8.609,7.403 8.414,7.368 8.221,7.325C6.371,6.91 4.619,6.26 3.048,5.177C2.687,4.928 2.464,4.563 2.488,4.081C2.512,4.085 2.536,4.091 2.559,4.1C3.85,4.921 5.265,5.455 6.727,5.871C7.911,6.207 9.103,6.512 10.298,6.831C10.292,6.85 10.284,6.869 10.275,6.886C9.466,8.158 9.174,9.559 9.242,11.049C9.287,11.89 9.416,12.725 9.628,13.54C9.797,13.499 9.961,13.462 10.121,13.417C10.146,13.409 10.169,13.333 10.163,13.295C10.071,12.791 9.951,12.29 9.884,11.783C9.673,10.181 9.843,8.645 10.735,7.248C10.903,6.985 11.093,6.736 11.283,6.469L10.328,6.225C10.363,6.177 10.385,6.139 10.413,6.107C10.979,5.452 11.481,4.744 11.911,3.993C11.911,3.993 12.451,3.09 13.699,0.707Z" style="fill:white;"/>
</svg>
