<svg width="12" height="19" viewBox="0 0 12 19" fill="none" xmlns="http://www.w3.org/2000/svg">
<path d="M3.47188 17.6355C3.36255 17.5398 3.23457 17.4664 3.14835 17.3434C2.99212 17.1208 2.92357 16.8784 2.97459 16.6045C3.24029 15.1599 3.5072 13.7157 3.77533 12.2718C3.86114 11.8058 3.9498 11.3375 4.03096 10.8694C4.04645 10.7793 4.06754 10.7714 4.15028 10.7985C5.03959 11.0921 5.93982 11.3477 6.85096 11.5655C6.93313 11.5852 6.95174 11.5986 6.91715 11.6863C6.29885 13.2679 5.68276 14.8505 5.06891 16.4339C4.98383 16.6531 4.90038 16.8728 4.81338 17.0911C4.64569 17.5146 4.29575 17.7406 3.84846 17.7175C3.83395 17.7194 3.81978 17.7235 3.8064 17.7296L3.47188 17.6355Z" fill="white"/>
<path d="M6.17053 3.21794C6.49284 2.91033 6.74031 2.53121 6.89317 2.11085C7.04524 1.70827 7.30405 1.59143 7.68712 1.77422C8.596 2.20752 9.00436 2.99213 9.16238 3.95038C9.20484 4.23847 9.21578 4.53068 9.19497 4.82172C9.34495 4.7591 9.47252 4.65114 9.56015 4.51266C9.71452 4.28904 9.89476 4.2123 10.1107 4.27408C10.3267 4.33586 10.4447 4.49998 10.4535 4.76726C10.4882 5.72703 10.2466 6.60389 9.67294 7.38285C9.61229 7.46503 9.56373 7.49849 9.4554 7.46416C9.12445 7.35903 8.78894 7.26687 8.45254 7.17936C8.35669 7.15213 8.32508 7.11507 8.31913 7.00774C8.27329 6.28507 8.05836 5.63072 7.54717 5.10309C7.34016 4.89121 7.09142 4.72583 6.81686 4.61753C6.53807 4.50492 6.27365 4.6215 6.16123 4.90919C5.9681 5.4053 5.69822 5.84395 5.26756 6.16874C5.23863 6.19448 5.20351 6.21199 5.16582 6.21947C5.12813 6.22694 5.08923 6.22411 5.05314 6.21127C4.73541 6.11524 4.41663 6.02292 4.09579 5.93939C3.98948 5.91187 3.94505 5.86582 3.93244 5.75258C3.80984 4.64794 4.20896 3.75877 5.02609 3.03913C5.12572 2.95108 5.23183 2.87111 5.33921 2.79284C5.69328 2.53679 6.0697 2.69361 6.13518 3.12454C6.14103 3.15651 6.12844 3.19306 6.17053 3.21794Z" fill="white"/>
<path d="M6.50581 7.62319C7.39669 7.8762 8.28744 8.12917 9.17805 8.38209C9.52818 8.48153 9.65586 8.72284 9.54699 9.07527C9.20312 10.1856 7.99502 10.8847 6.8886 10.5937C6.13012 10.3958 5.37613 10.1817 4.6266 9.95129C3.52233 9.61093 2.86439 8.35738 3.17706 7.22703C3.26413 6.91119 3.50684 6.77061 3.81931 6.8589C4.71506 7.11329 5.61056 7.36806 6.50581 7.62319Z" fill="white"/>
<path d="M6.27064 6.54544C6.48834 6.30157 6.67583 6.03173 6.82888 5.74202C7.14721 6.0446 7.28687 6.42305 7.35595 6.85366L6.27064 6.54544Z" fill="white"/>
</svg>
