<svg width="17" height="17" viewBox="0 0 17 17" fill="none" xmlns="http://www.w3.org/2000/svg">
<path d="M4.18433 13.8984C4.2157 13.8863 4.24769 13.8758 4.28016 13.8671C4.42454 13.8199 4.434 13.8034 4.40161 13.6686C4.21704 12.8969 4.69172 12.0157 5.46214 11.7001C5.60338 11.6422 5.62708 11.6174 5.56308 11.4831C5.43638 11.2176 5.45281 10.9703 5.61438 10.7128C5.69594 10.5826 5.73867 10.4309 5.80752 10.2922C5.84826 10.2102 5.83138 10.1574 5.74349 10.1221C5.4927 10.0221 5.25212 9.90032 5.00226 9.80101C4.81913 9.72848 4.80143 9.69272 4.90813 9.5302C5.0582 9.30459 5.16961 9.05912 5.3203 8.83431C5.37486 8.7535 5.35611 8.70367 5.2662 8.6687C5.00666 8.56786 4.76063 8.43915 4.50042 8.33954C4.3493 8.28168 4.33118 8.23701 4.42385 8.09649C4.57643 7.86772 4.68816 7.61779 4.84251 7.39011C4.89934 7.30654 4.88375 7.25233 4.78723 7.21551C4.5311 7.11757 4.2891 6.98922 4.03359 6.89209C3.8745 6.83148 3.85805 6.7876 3.95239 6.64353C4.10487 6.41445 4.21784 6.16512 4.37103 5.93715C4.42384 5.85858 4.41151 5.80565 4.31962 5.76999C4.06061 5.66864 3.81413 5.54075 3.55414 5.44072C3.40126 5.38177 3.38215 5.33843 3.47552 5.20003C3.62643 4.97482 3.73961 4.73044 3.88634 4.50324C3.96531 4.38028 3.95186 4.36289 3.82191 4.28974C3.60553 4.16844 3.39075 4.0456 3.1749 3.92379C3.14421 3.90667 3.10474 3.89511 3.10608 3.84944C2.37778 4.08736 1.64948 4.32528 0.920911 4.56128C0.835304 4.58924 0.812427 4.61011 0.841702 4.69973C1.86032 7.807 2.87659 10.915 3.89052 14.0238C3.96929 13.9381 4.08675 13.9416 4.18433 13.8984Z" fill="white"/>
<path d="M4.39174 13.8624C4.45307 13.8424 4.46739 13.8213 4.45056 13.7611C4.40157 13.5974 4.38249 13.4259 4.39418 13.2542C4.45369 12.5425 4.81579 12.0201 5.50234 11.7161C5.633 11.6583 5.65759 11.608 5.60587 11.4919C5.56455 11.4022 5.54649 11.3026 5.50998 11.2103C5.49527 11.1762 5.48861 11.1392 5.49047 11.1019C5.49233 11.0646 5.50265 11.0279 5.52074 10.9943C5.63485 10.756 5.73577 10.512 5.85083 10.2733C5.89306 10.1862 5.88728 10.1468 5.78987 10.1073C5.50173 9.99032 5.22016 9.8578 4.93376 9.73859C4.86235 9.70831 4.85496 9.68459 4.8942 9.61749C5.05636 9.34773 5.20819 9.0723 5.37286 8.80372C5.42527 8.71959 5.40196 8.69369 5.32091 8.65986C5.03055 8.53826 4.74376 8.40812 4.45437 8.2852C4.38956 8.25778 4.38067 8.23489 4.41778 8.17318C4.57942 7.90291 4.73135 7.62778 4.89645 7.35941C4.95064 7.271 4.92697 7.24289 4.84284 7.20938C4.55614 7.08927 4.27377 6.9597 3.98739 6.83948C3.91733 6.81009 3.90665 6.78711 3.94782 6.71838C4.11041 6.44881 4.26224 6.17338 4.42682 5.9045C4.47827 5.82068 4.45751 5.79395 4.37592 5.76063C4.08932 5.64082 3.80685 5.51094 3.52025 5.39113C3.44685 5.36015 3.43377 5.33528 3.47841 5.26306C3.6434 4.99003 3.79815 4.71163 3.96272 4.4384C4.00267 4.37241 3.99098 4.3464 3.92677 4.31109C3.6527 4.16037 3.38195 4.00356 3.10986 3.84918C3.10852 3.89485 3.14801 3.90642 3.1787 3.92353C3.39519 4.04514 3.60931 4.16819 3.8257 4.28949C3.95545 4.36203 3.96891 4.37942 3.89014 4.50299C3.74341 4.73018 3.63023 4.97457 3.47931 5.19978C3.38626 5.33807 3.40537 5.38141 3.55794 5.44047C3.81793 5.54049 4.06439 5.66839 4.3234 5.76974C4.41569 5.80661 4.42764 5.85832 4.37483 5.93689C4.22164 6.16486 4.10865 6.4142 3.95617 6.64328C3.85992 6.78797 3.87637 6.83185 4.03737 6.89184C4.2936 6.99008 4.53562 7.11842 4.79103 7.21525C4.88715 7.25086 4.90313 7.30629 4.84629 7.38986C4.69194 7.61754 4.58023 7.86747 4.42765 8.09624C4.33458 8.23554 4.35271 8.28021 4.50422 8.33928C4.76442 8.4389 5.01046 8.56761 5.27 8.66845C5.3599 8.70341 5.37866 8.75324 5.3241 8.83406C5.17341 9.05886 5.06199 9.30434 4.91191 9.52995C4.80482 9.69126 4.82242 9.72672 5.00604 9.80076C5.25686 9.89976 5.49744 10.0215 5.74727 10.1219C5.83516 10.1572 5.85204 10.2099 5.81131 10.2919C5.74245 10.4307 5.69974 10.5824 5.61818 10.7125C5.45661 10.97 5.44017 11.2173 5.56686 11.4829C5.63086 11.6171 5.60716 11.6419 5.46592 11.6998C4.6955 12.0155 4.22083 12.8966 4.4054 13.6683C4.43778 13.8032 4.42812 13.819 4.28394 13.8668C4.25147 13.8756 4.21948 13.886 4.18811 13.8981C4.09053 13.9414 3.97212 13.9382 3.89355 14.0245C4.05712 13.9701 4.22329 13.9128 4.39174 13.8624Z" fill="white"/>
<path d="M16.1609 10.1243C16.153 10.0923 16.1368 10.0631 16.1139 10.0391C16.0909 10.0151 16.0619 9.9972 16.0294 9.98694C15.7676 9.89041 15.5079 9.7895 15.2504 9.68422C15.1744 9.65307 15.1452 9.66965 15.1114 9.73933C14.9784 10.014 14.8349 10.2847 14.7037 10.5604C14.6621 10.6494 14.6315 10.6715 14.5361 10.6188C14.2649 10.4702 13.9844 10.3367 13.7116 10.1909C13.6415 10.1539 13.6172 10.1671 13.5844 10.2345C13.4474 10.5165 13.3019 10.7959 13.1654 11.0773C13.1286 11.154 13.1004 11.1683 13.022 11.1262C12.7499 10.9806 12.4705 10.845 12.198 10.6978C12.1119 10.6508 12.0834 10.6719 12.0457 10.7512C11.9115 11.0296 11.767 11.3047 11.6324 11.5832C11.5972 11.6563 11.5691 11.6665 11.497 11.6274C11.231 11.4854 10.959 11.3539 10.694 11.2105C10.601 11.1605 10.5563 11.159 10.5061 11.2672C10.3776 11.5438 10.2317 11.8136 10.0993 12.0887C10.0651 12.1595 10.0385 12.1645 9.97148 12.1305C9.69437 11.9834 9.41232 11.844 9.13573 11.6975C9.0647 11.6597 9.02562 11.6581 8.98203 11.7356C8.91528 11.856 8.8196 11.9656 8.76154 12.0898C8.60789 12.4181 8.36543 12.6293 7.99033 12.6855C7.91683 12.6965 7.89807 12.7277 7.91886 12.8C7.98729 13.0333 7.99705 13.2804 7.94737 13.5215C7.81903 14.1307 7.46556 14.5799 6.86551 14.8349C6.73233 14.8915 6.71107 14.9443 6.76409 15.059C6.80367 15.1463 6.8335 15.2376 6.8531 15.3315C6.87497 15.4309 6.9109 15.45 7.01941 15.4142C8.63156 14.8828 10.2446 14.3548 11.8584 13.83C13.4796 13.3004 15.101 12.7714 16.7226 12.243C16.812 12.2138 16.8359 12.1883 16.8053 12.0967C16.5866 11.4394 16.372 10.7824 16.1609 10.1243Z" fill="white"/>
<path d="M7.17959 12.944C7.09478 12.6952 6.90989 12.4915 6.66501 12.3771C6.42012 12.2626 6.13496 12.2467 5.87127 12.3327C5.32599 12.5162 5.01741 13.0931 5.1912 13.6056C5.36499 14.1181 5.95924 14.3994 6.49953 14.2169C7.03982 14.0344 7.3522 13.4572 7.17959 12.944ZM6.01661 13.7072C5.95067 13.7304 5.93092 13.7111 5.9138 13.6544C5.86042 13.4801 5.80407 13.3065 5.74388 13.1342C5.7241 13.0737 5.72656 13.0444 5.79934 13.0226C5.98364 12.9678 6.16645 12.908 6.3478 12.8434C6.41844 12.8184 6.44219 12.8381 6.45866 12.9004C6.48087 12.9846 6.51276 13.066 6.53986 13.1489C6.56953 13.2398 6.59633 13.3315 6.62887 13.4214C6.64963 13.4763 6.6456 13.5051 6.57793 13.5252C6.3881 13.5815 6.20092 13.6426 6.01512 13.708L6.01661 13.7072Z" fill="white"/>
</svg>
