<svg width="109" height="101" viewBox="0 0 109 101" fill="none" xmlns="http://www.w3.org/2000/svg">
<path opacity="0.6" d="M109 52.4698C107.831 53.6012 107.099 54.2566 106.424 54.9741C101.261 60.4413 94.9609 64.6383 87.9952 67.2508C87.8507 67.4094 87.7097 67.575 87.5619 67.7337C85.9531 69.4964 84.2268 71.3108 82.1343 73.4529C80.6364 74.981 79.1116 76.5091 77.6942 77.9372L76.7941 78.8341L75.6959 79.9344L75.6354 79.9965L75.5716 80.0586L74.564 81.0659C73.7411 81.8903 72.9284 82.7078 72.1525 83.4805C68.7603 86.9024 65.7375 90.0103 62.9667 92.9182C67.7426 97.4025 75.3667 99.5343 81.5869 97.368L78.8765 91.7868C86.6551 94.8534 90.2521 94.3463 93.2615 89.9482L84.1932 86.516L84.529 85.6571C95.6125 86.1193 100.828 83.346 100.728 77.1852L85.671 78.6305C85.6475 78.3097 85.624 77.9924 85.5971 77.6716C101.06 73.1252 108.987 64.8396 109 52.4698Z" fill="#2C2525"/>
<path opacity="0.6" d="M41.4412 87.1576C39.6511 85.3294 37.7165 83.3632 35.5233 81.1694L33.226 78.8651L32.9741 78.6167L30.5425 76.1814C29.7666 75.4018 29.0748 74.7016 28.4232 74.0393C27.5164 73.1183 26.7036 72.2835 25.9378 71.4867L25.8841 71.4315L25.8438 71.3867C24.366 69.8482 23.0527 68.4408 21.8134 67.0817C14.7114 64.4254 8.3218 60.0815 3.16632 54.4049C2.48204 53.7684 1.75353 53.1839 0.986572 52.6561C1.99416 65.9331 9.1346 73.377 24.497 77.6509L24.4399 78.5719L8.65432 77.1507C12.0129 86.0538 18.3943 87.3749 26.4315 85.1742V86.3987L16.7419 89.9827C17.4215 91.1633 18.3946 92.1369 19.5614 92.8037C20.7283 93.4705 22.0469 93.8065 23.3819 93.7771C25.8874 93.7771 28.3997 92.832 31.1067 92.2594L28.4769 97.4577C34.8583 99.2135 42.6369 97.1818 47.1744 93.07C46.3515 92.2042 45.4951 91.3246 44.6353 90.4208C43.6042 89.3756 42.5328 88.2753 41.4412 87.1576Z" fill="#2C2525"/>
<path opacity="0.6" d="M71.4606 82.7631L73.8755 80.3312L74.8831 79.3239L75.004 79.2032L77.0192 77.2025C78.5037 75.7215 79.9804 74.2268 81.4492 72.7182C82.9852 71.1499 84.5022 69.5562 86.0001 67.9372C86.2856 67.6302 86.5744 67.3301 86.8566 67.0197C89.3188 64.3832 91.6067 61.5806 93.7048 58.6306C94.0205 58.1856 94.3362 57.7337 94.6452 57.2784C98.7407 51.0977 101.227 43.9427 101.866 36.4954C102.027 34.8293 102.132 33.1563 102.202 31.4833C102.404 28.3938 102.249 25.2906 101.739 22.2387C100.741 15.8796 97.6201 10.0748 92.9122 5.81926C88.8057 2.07386 83.5053 0.00361837 78.0133 1.80177e-05C76.9705 -0.00133567 75.9289 0.0735902 74.8965 0.224231C71.6612 0.652485 68.5616 1.82447 65.8282 3.653C61.9594 6.22577 58.7113 9.66903 56.33 13.722C55.8867 14.4567 55.4702 15.2122 55.0269 15.9848C54.9563 15.9262 54.9194 15.909 54.9026 15.8814C54.8052 15.7089 54.7145 15.5364 54.6238 15.3777C52.6879 11.7202 50.1099 8.46196 47.0199 5.76752C43.3637 2.51866 38.8043 0.534548 33.9884 0.0966026C33.3536 0.0414112 32.7189 0.0138188 32.0874 0.0138188C29.8474 0.0137282 27.6199 0.355509 25.4777 1.02796C15.6403 4.09454 8.5569 13.7703 7.82137 26.0745C7.58791 30.4812 7.81309 34.9008 8.49309 39.2584C9.37993 45.4286 11.5631 51.3267 14.8913 56.5437C15.3525 57.2336 15.8227 57.9234 16.3019 58.6133C18.1996 61.3206 20.2709 63.895 22.5019 66.3194C22.9553 66.8196 23.4121 67.3094 23.8689 67.8062C24.7589 68.7686 25.6523 69.7275 26.5558 70.6692L26.6498 70.7727C27.4693 71.6282 28.2933 72.4767 29.1218 73.3184L31.2411 75.4536L33.928 78.1373C34.696 78.9031 35.4629 79.6712 36.2286 80.4416C38.2102 82.4284 40.184 84.4268 42.1499 86.4367C43.2179 87.5267 44.2815 88.6214 45.3406 89.7206C46.1959 90.6083 47.0479 91.4994 47.8965 92.394C49.4146 93.9876 50.9215 95.5974 52.4172 97.2232C53.0262 97.8809 53.633 98.5421 54.2376 99.2067L54.6944 99.7068C54.7985 99.8172 54.9093 99.9069 55.0302 100.017C55.1478 99.8931 55.2519 99.7931 55.3661 99.6723C57.6522 97.1427 59.9663 94.6614 62.3084 92.2284C65.3267 89.0319 68.3774 85.8768 71.4606 82.7631ZM58.6072 85.633C57.4988 86.6954 56.3972 87.7579 55.3023 88.8341C55.2116 88.9272 55.1142 89.0135 55.0034 89.1135C54.9026 89.0204 54.8018 88.9479 54.7011 88.8583L54.2712 88.434L52.5482 86.7437L51.5574 85.7986C49.6721 83.9911 47.7689 82.1996 45.8477 80.4243C44.8469 79.5044 43.8393 78.5846 42.825 77.6647C40.9643 75.9722 39.098 74.2843 37.2261 72.6009L35.0498 70.652L34.6534 70.307L32.5174 68.396L30.5022 66.5885C29.7207 65.8779 28.9371 65.1616 28.1511 64.4395L28.0638 64.3567C26.7629 63.1517 25.4844 61.926 24.2283 60.6796C22.1337 58.651 20.1745 56.4798 18.3641 54.1808C17.9107 53.6013 17.464 53.0149 17.0206 52.4215C13.915 48.1119 11.8437 43.1103 10.9751 37.8234C10.3299 34.1501 10.1157 30.4107 10.337 26.6851C10.5925 21.8017 12.3444 17.1262 15.3423 13.3267C18.3402 9.52723 22.4307 6.79817 27.0294 5.52951C29.6469 4.80181 32.3657 4.53587 35.0699 4.74303C39.5424 5.08192 43.823 6.74631 47.3927 9.53435C50.2665 11.7518 52.7091 14.5039 54.5936 17.6475L54.8556 18.0752C54.8924 18.1079 54.933 18.1357 54.9765 18.158C55.393 17.5095 55.7893 16.8679 56.2091 16.2505C58.5493 12.751 61.6343 9.8444 65.2304 7.75097C67.8661 6.1887 70.7875 5.20226 73.8117 4.85342C76.8148 4.44846 79.8662 4.65752 82.7904 5.46856C85.7145 6.2796 88.4536 7.67661 90.85 9.57918C95.1898 12.9942 98.1564 17.928 99.1861 23.4426C99.6695 26.013 99.8174 28.6382 99.6261 31.2487C99.5522 32.663 99.4481 34.0773 99.2902 35.4847C98.6456 41.8738 96.2812 47.9523 92.4621 53.039C92.1699 53.4219 91.871 53.8048 91.5721 54.1808C89.5733 56.6956 87.411 59.0685 85.1 61.2832C83.4207 62.9217 81.7145 64.5188 79.9882 66.1125C78.5932 67.375 77.1972 68.6329 75.8 69.8862L75.3163 70.3174L73.9091 71.5661L73.7949 71.6696L72.841 72.5216L70.5605 74.574C66.5268 78.1959 62.53 81.8731 58.6072 85.633Z" fill="#2C2525"/>
</svg>
