<svg width="20" height="21" viewBox="0 0 20 21" fill="none" xmlns="http://www.w3.org/2000/svg">
<path d="M13.5861 2.44973C13.8692 2.72127 13.8914 2.84525 13.7457 3.20442C13.2234 4.48674 12.7028 5.77001 12.1838 7.05422C11.9496 7.63194 11.7192 8.20917 11.4751 8.78418C11.4266 8.8986 11.4577 8.9224 11.5653 8.95629C12.6457 9.29732 13.725 9.64343 14.8044 9.98788C14.8476 10.0017 14.8904 10.0153 14.9332 10.029C15.3453 10.1752 15.4535 10.5889 15.1447 10.8734C14.7369 11.2477 14.3189 11.615 13.9051 11.9845C11.8762 13.7972 9.84756 15.6103 7.81925 17.4238C7.65234 17.5731 7.47336 17.6711 7.23454 17.5983C6.94178 17.5091 6.80604 17.2038 6.92488 16.9109C7.65626 15.1155 8.38808 13.32 9.12034 11.5245C9.15035 11.45 9.17591 11.3741 9.20592 11.2996C9.28454 11.1048 9.28494 11.105 9.06447 11.0346C7.9847 10.69 6.9052 10.3455 5.82596 10.0011C5.52594 9.90536 5.37195 9.70613 5.39616 9.45321C5.41143 9.29244 5.51783 9.18766 5.63231 9.08547C6.95415 7.90473 8.27556 6.72344 9.59656 5.5416C10.6892 4.56517 11.7813 3.58802 12.8728 2.61015C13.0213 2.47676 13.181 2.38352 13.3933 2.38611L13.5861 2.44973Z" fill="white"/>
<path d="M9.92437 16.8807C10.2407 16.5991 10.5577 16.3198 10.8706 16.0362C10.9315 15.9762 11.013 15.9391 11.1012 15.9312C12.739 15.7778 14.0962 15.1179 15.1557 13.9421C15.8601 13.1661 16.3219 12.2136 16.4911 11.188C16.7681 9.56575 16.3946 8.06509 15.4015 6.68623C15.0468 6.19335 14.6122 5.75644 14.1146 5.39272C14.0172 5.32168 13.9937 5.26289 14.0436 5.15523C14.1446 4.93774 14.234 4.71486 14.3172 4.49043C14.3509 4.39862 14.3805 4.39084 14.4639 4.44897C15.2405 4.98364 15.9043 5.65573 16.4173 6.42688C17.2484 7.68301 17.6427 9.0461 17.5867 10.5072C17.5518 11.4339 17.3171 12.3376 16.897 13.1618C16.152 14.6334 14.9879 15.6963 13.4261 16.3561C12.3348 16.8171 11.1777 16.9881 9.96993 16.8927C9.95435 16.8905 9.93904 16.8864 9.92437 16.8807Z" fill="white"/>
<path d="M10.7938 3.13103C10.4448 3.44257 10.1177 3.73127 9.7967 4.02483C9.73501 4.07872 9.6679 4.08127 9.59865 4.08775C8.30424 4.20522 7.16612 4.65969 6.19769 5.46218C5.12458 6.3515 4.46118 7.47667 4.22555 8.83126C3.94335 10.4531 4.32202 11.9545 5.31457 13.3336C5.66939 13.8267 6.10433 14.2637 6.60221 14.6274C6.70027 14.7007 6.72043 14.7589 6.67139 14.8651C6.57079 15.0828 6.48101 15.3055 6.39823 15.5301C6.36411 15.623 6.3332 15.6279 6.25164 15.5711C5.47972 15.0389 4.81923 14.3711 4.30729 13.6054C3.46534 12.3399 3.06915 10.9687 3.12772 9.49408C3.16404 8.57796 3.39611 7.6847 3.80974 6.86897C4.55459 5.39102 5.72104 4.32213 7.28988 3.66122C8.38582 3.20085 9.54596 3.02456 10.7938 3.13103Z" fill="white"/>
</svg>
