<svg width="14" height="14" viewBox="0 0 14 14" fill="none" xmlns="http://www.w3.org/2000/svg">
<g clip-path="url(#clip0_188_196)">
<path d="M4.21016 0.0230346C4.18823 0.025959 4.16447 0.0318032 4.15717 0H4.21198C4.22112 0.00584887 4.22406 0.01133 4.2204 0.0160823C4.21942 0.0180108 4.21796 0.0196602 4.21617 0.0208748C4.21438 0.0220895 4.21231 0.0228366 4.21016 0.0230346Z" fill="white"/>
<path d="M4.21014 0.0230346C4.21014 0.0153579 4.21014 0.00767665 4.21196 0H4.26678C4.2622 0.0104597 4.25372 0.0187161 4.24314 0.0230167C4.23256 0.0273174 4.22073 0.0273277 4.21014 0.0230346Z" fill="white"/>
<path d="M4.81524 0.0234005C4.79113 0.0281527 4.7703 0.0255888 4.75897 0H4.81342C4.82183 0.00475221 4.82511 0.00986676 4.82256 0.0149845C4.82 0.0201023 4.8178 0.0234005 4.81524 0.0234005Z" fill="white"/>
<path d="M4.81524 0.0234005C4.81407 0.0156557 4.81346 0.00783217 4.81342 0H4.86823C4.86165 0.033631 4.83752 0.0263249 4.81524 0.0234005Z" fill="white"/>
<path d="M3.96133 0.0679941C3.7321 0.105208 3.50489 0.154011 3.28059 0.214216C2.39005 0.473022 1.60226 1.00303 1.02679 1.73053C0.495494 2.38853 0.186361 3.14377 0.073817 3.97979C0.00804464 4.46561 0.0372825 4.9518 0.0796691 5.43762C0.186366 6.68854 0.481607 7.90913 0.678193 9.14616C0.751273 9.60493 0.79952 10.0659 0.838253 10.5291C0.863831 10.8339 0.843729 11.1384 0.879539 11.4429C1.02935 12.7111 2.02214 13.7459 3.28168 13.9353C4.84779 14.1692 6.32548 13.0262 6.50453 11.4495C6.53946 11.169 6.53145 10.8847 6.48078 10.6066C6.38907 10.1291 6.45885 9.67256 6.64191 9.22951C6.88198 8.64828 7.24411 8.15113 7.6826 7.70405C8.39842 6.97295 8.83434 6.10037 8.95164 5.08376C9.0978 3.8237 8.77149 2.68755 7.97126 1.70092C7.24046 0.800197 6.29552 0.260638 5.1456 0.0826127C5.0707 0.070915 4.96803 0.105643 4.92308 0.00109482H4.86827C4.85329 0.0179103 4.83173 0.0146164 4.81346 0.0153475C4.79519 0.0160786 4.77399 0.0179103 4.75901 0.00109482H4.2668C4.25146 0.0179103 4.23026 0.0146164 4.21199 0.0153475C4.19372 0.0160786 4.17253 0.0179103 4.15718 0.00109482H4.07461C4.0684 0.0738401 4.00445 0.0599519 3.96133 0.0679941ZM7.31061 3.90229C7.51889 4.85821 7.28613 5.71361 6.65069 6.46117C6.57505 6.55 6.52573 6.57449 6.43804 6.47214C6.32432 6.34177 6.20226 6.21893 6.07263 6.10439C5.9864 6.02689 5.97469 5.97974 6.0602 5.88177C6.98686 4.81984 6.58676 3.1657 5.28008 2.63674C3.94929 2.09755 2.47561 3.08308 2.46318 4.52044C2.46318 4.55699 2.46318 4.59355 2.46318 4.64107C2.47086 4.73356 2.42665 4.86772 2.49023 4.93352C2.54614 4.98981 2.67805 4.97008 2.77635 4.98507C3.36957 5.07816 3.91867 5.35501 4.34638 5.77667C4.77408 6.19832 5.05885 6.74353 5.16059 7.33557C5.25304 7.87148 5.19055 8.4019 5.0221 8.91294C4.81784 9.53037 4.18643 9.92516 3.54076 9.87216C2.87573 9.81769 2.33712 9.31652 2.21946 8.63257C2.0733 7.77607 1.88659 6.92615 1.7671 6.06491C1.6816 5.44675 1.59755 4.82641 1.66624 4.20058C1.79925 2.9895 2.72957 1.97582 3.92517 1.7298C5.4657 1.41104 6.977 2.37281 7.31061 3.90229Z" fill="white"/>
<path d="M3.99454 0.0289594C2.40869 0.257065 1.24196 1.08285 0.492159 2.49535C0.00580874 3.41143 -0.0559342 4.39624 0.0365125 5.40663C0.124209 6.36037 0.30836 7.29838 0.481561 8.23822C0.623336 9.00844 0.755258 9.77975 0.803856 10.5635C0.824319 10.8925 0.803842 11.2215 0.853171 11.5461C0.91175 11.9308 1.0474 12.2997 1.25196 12.6306C1.45651 12.9616 1.72576 13.2478 2.04358 13.4721C2.3614 13.6964 2.72123 13.8542 3.1015 13.936C3.48176 14.0178 3.87463 14.022 4.25653 13.9482C5.74847 13.666 6.80922 12.1087 6.51909 10.6187C6.43629 10.1917 6.47672 9.74996 6.63566 9.34512C6.87134 8.72075 7.25685 8.19764 7.71397 7.71877C8.79044 6.59213 9.20736 5.25602 8.94427 3.7185C8.64172 1.94885 7.22469 0.480781 5.47295 0.107184C5.29025 0.0684354 5.10536 0.0340758 4.92157 7.92099e-05C4.96651 0.104628 5.06772 0.0698994 5.14409 0.0815971C6.29401 0.259622 7.23894 0.799181 7.96975 1.69991C8.76998 2.6869 9.09555 3.82268 8.95012 5.08275C8.83283 6.09936 8.3969 6.97266 7.68108 7.70304C7.2426 8.15011 6.88049 8.64727 6.64042 9.2285C6.45772 9.67155 6.38756 10.1281 6.47927 10.6055C6.52994 10.8837 6.53794 11.1679 6.50302 11.4485C6.32397 13.0259 4.84628 14.169 3.28017 13.9343C2.02063 13.746 1.02784 12.71 0.878025 11.4419C0.841485 11.1378 0.862317 10.8333 0.836739 10.528C0.798006 10.0649 0.749394 9.60392 0.676679 9.14515C0.480824 7.90811 0.184853 6.68753 0.0781555 5.4366C0.036865 4.95078 0.00508721 4.4646 0.0723212 3.97878C0.185596 3.14275 0.49398 2.38825 1.02527 1.72952C1.60075 1.00202 2.38854 0.472007 3.27908 0.2132C3.50338 0.152996 3.73058 0.104193 3.95982 0.0669785C4.00294 0.0589363 4.06689 0.0728235 4.07383 -0.00101852C4.06104 0.0443102 4.02231 0.0249383 3.99454 0.0289594Z" fill="white"/>
<path d="M13.7643 6.63554C12.5663 6.63554 11.368 6.63554 10.1695 6.63554C9.91626 6.63554 9.91589 6.63554 9.91589 6.89143C9.91589 7.01023 9.91589 7.12867 9.91589 7.24711C9.91589 7.32534 9.95243 7.36446 10.0317 7.36519C10.0821 7.36519 10.1322 7.36702 10.1823 7.36702C11.3759 7.36702 12.5696 7.36702 13.7632 7.36702C13.8436 7.36702 13.9287 7.35166 13.9993 7.41051V6.58985C13.9298 6.6509 13.8447 6.63554 13.7643 6.63554Z" fill="white"/>
<path d="M9.98132 6.59021C9.89253 6.59021 9.86622 6.61178 9.86951 6.70171C9.87681 6.89289 9.87937 7.08481 9.86951 7.27563C9.86293 7.39041 9.89618 7.416 10.0095 7.41564C11.3399 7.41125 12.6707 7.41271 14.0011 7.41271C13.9306 7.35386 13.8455 7.36921 13.7651 7.36921C12.5714 7.36921 11.3778 7.36921 10.1841 7.36921C10.1341 7.36921 10.084 7.36921 10.0336 7.36738C9.95429 7.36738 9.91848 7.32754 9.91775 7.24931C9.91775 7.13087 9.91775 7.01243 9.91775 6.89363C9.91775 6.63774 9.91775 6.63774 10.1713 6.63774C11.3696 6.63774 12.5679 6.63774 13.7662 6.63774C13.8465 6.63774 13.9317 6.65309 14.0022 6.59424H12.731C11.8131 6.59205 10.8974 6.5935 9.98132 6.59021Z" fill="white"/>
<path d="M10.3138 3.78568C10.3632 3.88219 10.3953 4.02914 10.4717 4.05911C10.5623 4.09384 10.673 3.98308 10.7731 3.93337C11.7273 3.45839 12.6803 2.98158 13.6321 2.50295C13.6686 2.48467 13.7234 2.48175 13.7329 2.42216L13.7033 2.36258C13.6083 2.17139 13.51 1.98166 13.4201 1.78829C13.3876 1.71773 13.3562 1.72176 13.2963 1.75173C12.2585 2.27277 11.2198 2.79235 10.1801 3.31046C10.1194 3.3408 10.0993 3.3653 10.1373 3.43219C10.202 3.54698 10.2543 3.66834 10.3138 3.78568Z" fill="white"/>
<path d="M13.6609 11.5168C12.6232 10.9967 11.5855 10.4767 10.5477 9.95661C10.486 9.92553 10.456 9.92553 10.4238 9.99316C10.3336 10.1865 10.2379 10.3774 10.1396 10.5664C10.1089 10.6259 10.1052 10.6566 10.1761 10.691C11.2202 11.2101 12.2629 11.7316 13.3043 12.2556C13.3774 12.2921 13.3971 12.264 13.4242 12.2077C13.5151 12.0198 13.6094 11.8334 13.7022 11.6462C13.7125 11.6261 13.7223 11.6056 13.7311 11.5884C13.7362 11.534 13.6894 11.5311 13.6609 11.5168Z" fill="white"/>
<path d="M3.03652 8.52765C3.05935 8.66105 3.12404 8.78372 3.2212 8.87789C3.31835 8.97207 3.44295 9.03287 3.57694 9.0515C3.84551 9.08805 4.08267 8.9528 4.21897 8.68594C4.33626 8.45711 4.36257 8.21072 4.37426 7.9329C4.36732 7.84955 4.35892 7.74062 4.34832 7.63205C4.2588 6.69952 3.63871 6.00167 2.73069 5.81049C2.55968 5.77393 2.5509 5.78124 2.57648 5.94977C2.70729 6.81174 2.88232 7.66677 3.03652 8.52765Z" fill="white"/>
</g>
<defs>
<clipPath id="clip0_188_196">
<rect width="14" height="14" fill="white"/>
</clipPath>
</defs>
</svg>
