<svg width="100" height="100" viewBox="0 0 100 100" fill="none" xmlns="http://www.w3.org/2000/svg">
<g opacity="0.6">
<path d="M81.4592 30.6698C79.7398 27.8454 77.6407 25.2706 75.2205 23.0174C77.5257 14.6551 75.0695 4.28688 75.0695 4.28688C75.0695 4.28688 64.861 7.80943 58.9245 14.211C55.6845 13.411 52.3511 13.0533 49.0151 13.1476C44.6465 5.61916 35.4532 0 35.4532 0C35.4532 0 30.7704 9.59185 31.1692 18.2472C28.308 19.9275 25.6914 21.9931 23.3927 24.386C14.8943 22.1172 4.35952 24.534 4.35952 24.534C4.35952 24.534 7.93958 34.579 14.435 40.4187C13.6177 43.6025 13.2496 46.8849 13.3414 50.1707C5.71299 54.4817 0 63.5177 0 63.5177C0 63.5177 9.74622 68.1248 18.5408 67.7472C20.2606 70.5658 22.3598 73.1346 24.7795 75.3814C22.4743 83.7467 24.9305 94.1119 24.9305 94.1119C24.9305 94.1119 35.142 90.5864 41.0755 84.1878C44.315 84.9916 47.6484 85.3533 50.9849 85.2633C55.3656 92.7796 64.5468 98.3988 64.5468 98.3988C64.5468 98.3988 68.7251 89.8402 68.8489 81.5957C67.8187 80.629 66.8066 79.6773 65.8278 78.7529L65.8852 80.0399C65.9173 83.7685 65.304 87.4746 64.0725 90.9942C61.0929 88.6694 58.5245 85.8611 56.4743 82.6863L54.9637 80.1184L51.8973 80.2151C51.5952 80.2151 51.2931 80.2151 50.9758 80.2151C48.207 80.2149 45.4482 79.8833 42.7583 79.2272L39.8127 78.5052L37.7553 80.6894C35.0365 83.362 31.8931 85.565 28.4532 87.2088C28.0459 83.5023 28.283 79.7533 29.1541 76.1276L29.9547 73.2697L27.7281 71.2365C25.5047 69.2006 23.573 66.8675 21.9879 64.3032L20.4169 61.7655L17.3595 61.8984C17.0574 61.8984 16.7553 61.9196 16.4381 61.9196C12.9007 61.8258 9.39445 61.2307 6.02417 60.1522C8.46426 57.2435 11.371 54.7606 14.6254 52.805L17.29 51.3338L17.2054 48.3762C17.1216 45.3987 17.4613 42.4245 18.2145 39.5426L18.9607 36.6726L16.7009 34.6727C13.9538 32.0808 11.6647 29.0431 9.93051 25.688C11.139 25.5883 12.4773 25.5219 13.858 25.5219C16.4012 25.4821 18.9391 25.7653 21.4109 26.3648L24.3686 27.1381L26.4834 24.9872C28.6105 22.8161 31.0234 20.945 33.6556 19.4254L36.281 17.9149L36.1088 14.9603C36.0781 11.2307 36.6913 7.52388 37.9215 4.0029C40.902 6.32762 43.4714 9.1359 45.5227 12.3108L47.0332 14.8787L50.0846 14.7941C50.3867 14.7941 50.6888 14.7941 50.9909 14.7941C53.7585 14.7949 56.5161 15.1256 59.2054 15.779L62.1782 16.504L64.2387 14.3168C66.9628 11.6399 70.1123 9.43379 73.5589 7.78828C73.9675 11.4948 73.7304 15.244 72.858 18.8695L72.0604 21.7244L74.281 23.7606C76.5051 25.7947 78.4368 28.127 80.0211 30.6909L81.5921 33.2316L85.6556 33.0957H84.6465C84.9486 33.0957 85.2508 33.0775 85.568 33.0775C89.1134 33.1678 92.6279 33.7618 96.006 34.8418C93.5608 37.7452 90.6562 40.2281 87.4079 42.1921L84.7462 43.6603L84.8278 46.6179C84.9121 49.5924 84.5723 52.5637 83.8187 55.4424L83.0725 58.3124L85.3354 60.3124C88.0745 62.9083 90.3544 65.9492 92.0786 69.306C90.8701 69.4027 89.5347 69.4692 88.1511 69.4692C85.6081 69.5085 83.0704 69.2263 80.5982 68.6293L77.6405 67.8529L75.6888 69.8529C76.6284 71.3211 77.6163 72.8739 78.6284 74.466C86.6828 75.9191 95.6254 73.8618 95.6254 73.8618C95.6254 73.8618 92.0453 63.8168 85.5408 57.9741C86.3596 54.7935 86.7297 51.5142 86.6405 48.2312C94.287 43.9201 100 34.8992 100 34.8992C100 34.8992 90.2659 30.277 81.4592 30.6698Z" fill="#2C2525"/>
<path d="M81.855 93.4805L82.4381 93.9881C86.0634 93.1603 87.2024 91.2117 87.8338 89.4565C87.6828 89.1997 87.5317 88.9399 87.3746 88.6771C86.3142 91.9307 83.8459 93.0938 81.855 93.4805Z" fill="#2C2525"/>
<path d="M79.2447 91.1664C79.6193 91.5048 79.9909 91.8341 80.3565 92.1603C82.4562 91.7887 83.8127 91.0727 84.7221 90.2148C82.8399 91.4745 80.7613 91.4534 79.2447 91.1664Z" fill="#2C2525"/>
<path d="M88.7553 91.0546L88.6798 90.9217C88.3148 91.987 87.6895 92.9443 86.8606 93.7067C86.0318 94.469 85.0256 95.0123 83.9335 95.2871C84.3867 95.6718 84.8228 96.0373 85.2417 96.3838C87.9758 94.6678 88.6314 92.7585 88.7553 91.0546Z" fill="#2C2525"/>
<path d="M80.6888 89.668C83.7674 89.6136 85.1994 88.1182 86.2266 86.7224C85.7654 85.9551 85.291 85.1706 84.8036 84.369C84.2659 87.381 82.4411 88.9006 80.6888 89.668Z" fill="#2C2525"/>
<path d="M76.3293 88.529L77.0242 89.1604C82.6556 87.9037 83.4048 85.0186 83.8248 82.7648L83.293 81.9008C82.6858 87.2269 78.2779 88.3115 76.3293 88.529Z" fill="#2C2525"/>
<path d="M82.3263 80.3389C81.1178 78.3722 79.861 76.3904 78.6435 74.466C77.6314 72.8709 76.6435 71.3211 75.7039 69.8529L75.5559 70.0039C73.4301 72.1751 71.0181 74.0462 68.3867 75.5657L65.7583 77.0762L65.8308 78.7468C66.8066 79.6713 67.8187 80.6229 68.852 81.5896C70.8852 83.499 72.994 85.4626 75.0665 87.3629C81.5227 86.0578 81.8882 82.6954 82.3263 80.3389Z" fill="#2C2525"/>
<path d="M92.3293 98.6435C92.4441 98.0393 91.4834 95.9699 89.8912 93.0727C89.6685 93.9938 89.2585 94.8591 88.6867 95.6148C88.115 96.3705 87.3938 97.0004 86.568 97.4653C88.5438 99.0453 89.9577 100.003 90.4773 100L91.8882 99.6707L92.3293 98.6435Z" fill="#2C2525"/>
<path d="M77.0237 89.1604H76.9758L77.0566 89.1814L77.0237 89.1604Z" fill="white"/>
</g>
</svg>
