<?xml version="1.0" encoding="UTF-8" standalone="no"?>
<!DOCTYPE svg PUBLIC "-//W3C//DTD SVG 1.1//EN" "http://www.w3.org/Graphics/SVG/1.1/DTD/svg11.dtd">
<svg width="100%" height="100%" viewBox="0 0 20 20" version="1.1" xmlns="http://www.w3.org/2000/svg" xmlns:xlink="http://www.w3.org/1999/xlink" xml:space="preserve" xmlns:serif="http://www.serif.com/" style="fill-rule:evenodd;clip-rule:evenodd;stroke-linejoin:round;stroke-miterlimit:2;">
    <path d="M4.887,15.802C4.852,15.932 4.814,16.06 4.773,16.189C4.765,16.216 4.748,16.24 4.724,16.255C4.339,16.472 3.934,16.649 3.514,16.784C3.466,16.796 3.417,16.803 3.367,16.807C3.249,16.818 3.214,16.786 3.215,16.667L3.191,16.658C3.249,16.488 3.294,16.313 3.367,16.147C3.493,15.867 3.634,15.594 3.777,15.321C3.793,15.291 3.819,15.269 3.851,15.258C3.977,15.219 4.104,15.184 4.232,15.155C4.247,15.154 4.262,15.157 4.276,15.162C4.291,15.168 4.303,15.177 4.314,15.188C4.458,15.405 4.647,15.59 4.867,15.73C4.876,15.74 4.882,15.751 4.886,15.764C4.889,15.776 4.889,15.789 4.887,15.802ZM16.785,16.667L16.785,16.705C16.785,16.718 16.785,16.712 16.785,16.716L16.785,16.746C16.784,16.752 16.782,16.757 16.779,16.762L16.779,16.771L16.764,16.788L16.751,16.795L16.649,16.795C16.6,16.792 16.551,16.785 16.503,16.773C16.395,16.742 16.291,16.707 16.189,16.671C16.086,16.634 15.984,16.588 15.882,16.542C15.682,16.451 15.486,16.348 15.29,16.247C15.272,16.236 15.257,16.22 15.248,16.2C15.248,16.193 15.243,16.187 15.241,16.18C15.203,16.062 15.168,15.942 15.139,15.821C15.163,15.813 15.185,15.801 15.205,15.787C15.43,15.634 15.624,15.44 15.777,15.215C15.79,15.195 15.801,15.175 15.809,15.153C15.931,15.182 16.052,15.215 16.17,15.256C16.202,15.267 16.229,15.289 16.245,15.319L16.347,15.524C16.45,15.728 16.552,15.933 16.648,16.145C16.721,16.308 16.767,16.484 16.825,16.656L16.785,16.667ZM7.782,13.055L7.354,13.455C6.944,13.839 6.535,14.223 6.126,14.606L5.06,15.613C5.052,15.622 5.043,15.63 5.033,15.636C5.022,15.642 5.011,15.646 4.999,15.647C4.987,15.648 4.974,15.647 4.963,15.643C4.951,15.64 4.941,15.634 4.932,15.626C4.727,15.488 4.552,15.312 4.414,15.108C4.406,15.099 4.401,15.089 4.397,15.078C4.394,15.067 4.393,15.056 4.394,15.044C4.395,15.032 4.398,15.021 4.403,15.011C4.409,15.001 4.416,14.992 4.425,14.984C4.656,14.735 4.887,14.486 5.116,14.235C5.457,13.862 5.798,13.487 6.139,13.11L6.952,12.223C6.64,11.794 6.321,11.386 6.032,10.955C5.802,10.61 5.615,10.239 5.409,9.879C5.378,9.833 5.36,9.779 5.358,9.723C5.356,9.668 5.369,9.613 5.396,9.565C5.419,9.513 5.439,9.461 5.457,9.407C5.517,9.461 5.571,9.509 5.623,9.559C5.912,9.829 6.199,10.1 6.488,10.369C6.864,10.72 7.242,11.07 7.622,11.42C7.645,11.441 7.674,11.456 7.705,11.465C7.909,11.514 8.108,11.562 8.311,11.604C8.334,11.607 8.355,11.617 8.371,11.634C8.387,11.65 8.397,11.671 8.399,11.694C8.441,11.888 8.482,12.083 8.534,12.274C8.554,12.339 8.589,12.399 8.637,12.449C8.936,12.773 9.24,13.095 9.542,13.417L9.855,13.752L9.419,14.217C9.245,14.115 9.074,13.999 8.908,13.881C8.53,13.618 8.162,13.338 7.782,13.055ZM14.961,15.625C14.955,15.621 14.95,15.617 14.945,15.613L13.878,14.606L12.432,13.25L12.227,13.055L11.663,13.475C11.476,13.614 11.289,13.752 11.098,13.884C10.873,14.042 10.642,14.191 10.404,14.326L9.805,14.633L9.77,14.647L9.762,14.647C9.75,14.65 9.738,14.653 9.725,14.654C9.719,14.655 9.712,14.655 9.705,14.654C9.611,14.626 9.52,14.588 9.422,14.552C9.439,14.528 9.447,14.513 9.458,14.499L10.466,13.422L11.372,12.451C11.384,12.438 11.395,12.425 11.405,12.411C11.438,12.371 11.463,12.325 11.478,12.276C11.504,12.181 11.527,12.084 11.55,11.987C11.572,11.889 11.593,11.793 11.613,11.696C11.615,11.684 11.619,11.672 11.624,11.661C11.631,11.646 11.642,11.633 11.655,11.623C11.669,11.613 11.685,11.607 11.701,11.606C11.906,11.564 12.11,11.516 12.309,11.467C12.339,11.458 12.367,11.443 12.391,11.422L12.503,11.319C12.844,11.004 13.185,10.688 13.526,10.372L14.472,9.488L14.558,9.41L14.619,9.568C14.633,9.593 14.643,9.62 14.65,9.648C14.656,9.673 14.658,9.7 14.657,9.726C14.653,9.781 14.635,9.835 14.606,9.882C14.555,9.971 14.504,10.062 14.453,10.153C14.351,10.334 14.254,10.517 14.146,10.695C14.094,10.784 14.044,10.872 13.982,10.958C13.697,11.389 13.378,11.797 13.061,12.226L13.874,13.113L14.897,14.239C15.127,14.49 15.357,14.739 15.587,14.988C15.593,14.994 15.599,15.001 15.603,15.009C15.576,15.027 15.552,15.05 15.532,15.076C15.403,15.27 15.234,15.435 15.038,15.562C15.008,15.577 14.982,15.599 14.961,15.625ZM9.85,11.136L8.851,12.066L8.702,12.209C8.657,12.015 8.615,11.839 8.576,11.662C8.537,11.485 8.536,11.475 8.348,11.431L7.802,11.302C7.861,11.237 7.914,11.176 7.968,11.118C8.257,10.808 8.546,10.498 8.835,10.187L9.776,11.065L9.85,11.136ZM3.308,3.249L3.627,3.404C4.372,3.774 5.116,4.145 5.859,4.515C5.877,4.524 5.895,4.535 5.912,4.546C5.929,4.558 5.944,4.571 5.959,4.585C6.175,4.812 6.389,5.041 6.603,5.27C6.937,5.63 7.27,5.992 7.603,6.352C7.808,6.571 8.012,6.788 8.217,7.007L9.214,8.082L10.006,8.928L11.042,10.052C11.373,10.408 11.704,10.762 12.035,11.118C12.085,11.171 12.137,11.226 12.186,11.285C12.009,11.328 11.828,11.372 11.65,11.407C11.59,11.419 11.535,11.448 11.491,11.489L11.483,11.497C11.442,11.541 11.415,11.595 11.403,11.654L11.28,12.187L8.977,10.04L7.799,8.938C7.508,8.667 7.218,8.394 6.927,8.12L4.81,6.147C4.74,6.081 4.666,6.017 4.605,5.943C4.585,5.919 4.565,5.894 4.548,5.868C4.526,5.835 4.505,5.801 4.487,5.766C4.429,5.663 4.384,5.552 4.329,5.446L3.331,3.452L3.193,3.185L3.308,3.249ZM16.671,3.459L15.673,5.454C15.609,5.598 15.536,5.738 15.455,5.873C15.377,5.974 15.288,6.067 15.19,6.15L13.073,8.123C12.782,8.394 12.492,8.667 12.201,8.942L11.178,9.897L10.142,8.777L10.794,8.082L11.79,7.007C11.995,6.788 12.199,6.571 12.404,6.352C12.738,5.992 13.07,5.63 13.405,5.27C13.617,5.041 13.832,4.812 14.049,4.585C14.079,4.556 14.114,4.532 14.152,4.515C14.894,4.144 15.638,3.774 16.383,3.404C16.52,3.336 16.658,3.27 16.82,3.192C16.756,3.296 16.713,3.376 16.671,3.459Z" style="fill:white;"/>
</svg>
