<svg width="14" height="14" viewBox="0 0 14 14" fill="none" xmlns="http://www.w3.org/2000/svg">
<g clip-path="url(#clip0_188_839)">
<path d="M14 12.3665C13.5606 12.3665 13.1233 12.3624 12.685 12.3665C12.5865 12.3665 12.5656 12.3378 12.5675 12.2442C12.5733 11.9194 12.5642 11.594 12.5726 11.2689C12.5755 11.1525 12.5404 11.1278 12.429 11.1282C10.2417 11.1315 8.05447 11.1282 5.86755 11.1337C5.73938 11.1337 5.69104 11.1106 5.70276 10.9725C5.71515 10.7988 5.71601 10.6246 5.70533 10.4509C5.69983 10.3381 5.73242 10.3061 5.84741 10.3065C6.87934 10.3113 7.91128 10.3091 8.94322 10.3091C9.8382 10.3091 10.7332 10.3091 11.6282 10.3113C11.73 10.3113 11.7666 10.2933 11.7651 10.1801C11.7571 9.52557 11.7776 8.86989 11.7527 8.21604C11.686 6.44772 10.9789 4.97253 9.66866 3.79377C8.7777 2.99189 7.72782 2.50996 6.54794 2.31711C6.22305 2.26656 5.89457 2.24273 5.56581 2.24585C4.86711 2.24585 4.16841 2.24915 3.47007 2.24364C3.35692 2.24364 3.32762 2.26936 3.32798 2.3847C3.33165 4.30326 3.32799 6.22218 3.33385 8.14074C3.33385 8.27408 3.30272 8.31264 3.17053 8.30346C2.98413 8.29097 2.79591 8.29648 2.60915 8.30346C2.52858 8.30603 2.5099 8.27812 2.51283 8.20281C2.51833 8.05588 2.51283 7.90895 2.51283 7.76202C2.51283 5.70131 2.51369 3.64059 2.5154 1.57988C2.5154 1.45976 2.4938 1.41348 2.36233 1.42046C2.13016 1.43259 1.89653 1.42046 1.664 1.42523C1.59259 1.42523 1.56916 1.40466 1.56952 1.3323C1.57209 0.915749 1.57135 0.498831 1.56952 0.0833826C1.56952 0.0293854 1.57685 -0.00110363 1.64276 -1.64419e-06C1.86639 0.00342676 2.09012 0.00342676 2.31399 -1.64419e-06C2.37734 -1.64419e-06 2.38943 0.0238722 2.38723 0.0800735C2.38393 0.217454 2.39163 0.35521 2.38431 0.492224C2.37918 0.583689 2.4092 0.606458 2.49856 0.60609C3.21557 0.602417 3.93257 0.60058 4.64922 0.60609C5.19851 0.609764 5.74488 0.585525 6.29234 0.629972C7.93326 0.764047 9.38815 1.35801 10.642 2.42584C12.0724 3.6439 12.9504 5.18239 13.276 7.04132C13.3517 7.49757 13.3875 7.9596 13.383 8.42211C13.383 9.42051 13.383 10.4189 13.3811 11.4173C13.3811 11.5139 13.3951 11.5547 13.5045 11.547C13.6682 11.5356 13.8341 11.5437 13.9974 11.5433L14 12.3665Z" fill="white"/>
<path d="M2.46413 12.0848C1.939 12.6069 1.41351 13.1285 0.887656 13.6496C0.784389 13.751 0.691378 13.9328 0.569435 13.9251C0.463238 13.9185 0.364733 13.7484 0.268057 13.6452C0.182001 13.5533 0.0216076 13.474 0.0296639 13.3675C0.0366216 13.2742 0.187126 13.1915 0.275013 13.1045C0.765958 12.6191 1.25739 12.1342 1.74931 11.6498C1.79692 11.6028 1.85148 11.5628 1.90238 11.5194L1.88407 11.4768H0.00878832L0 11.4441C0.028197 11.4173 0.0556634 11.3901 0.0842266 11.3637C0.866663 10.6276 1.64909 9.89119 2.43153 9.15458C2.45438 9.12974 2.48222 9.11006 2.51322 9.09683C2.54421 9.0836 2.57766 9.07711 2.61134 9.07781C3.1361 9.08663 3.66122 9.08883 4.18598 9.09618C4.23102 9.09618 4.28631 9.06862 4.32293 9.12225C4.31414 9.19315 4.25592 9.22877 4.21307 9.27285C3.51511 9.97421 2.8169 10.675 2.11844 11.3751C2.08118 11.4041 2.05006 11.4404 2.02689 11.4816C2.14444 11.4816 2.25759 11.4794 2.37038 11.4816C2.42787 11.4816 2.49306 11.4743 2.52089 11.5474C2.54103 11.6862 2.52931 11.8251 2.52894 11.9639C2.52858 12.0139 2.52418 12.0657 2.46413 12.0848Z" fill="white"/>
<path d="M4.92129 9.66478C4.92129 9.4881 4.91726 9.34227 4.92129 9.19681C4.92421 9.12004 4.90225 9.09285 4.82278 9.09579C4.66971 9.10204 4.51627 9.09579 4.32549 9.09579C4.39579 9.02967 4.44157 8.98816 4.48552 8.94518C6.00083 7.44869 7.51554 5.95145 9.02963 4.45349C9.11093 4.37304 9.1556 4.35431 9.238 4.45128C9.3572 4.58988 9.48501 4.7208 9.62067 4.84323C9.7016 4.91669 9.69208 4.95856 9.61774 5.03203C8.58751 6.04414 7.55923 7.05822 6.53291 8.07425L5.00076 9.58617C4.98354 9.60637 4.96413 9.62401 4.92129 9.66478Z" fill="white"/>
<path d="M2.46413 12.0847C2.52565 11.8978 2.47731 11.7056 2.49269 11.5165C2.56593 11.5249 2.54908 11.5863 2.55164 11.6296C2.5575 11.7435 2.55165 11.8581 2.55568 11.9845C2.59397 11.9595 2.62808 11.9286 2.65675 11.893C3.34739 11.2014 4.03779 10.5096 4.72794 9.81758C4.77189 9.7735 4.80777 9.71583 4.87735 9.70407C4.93557 9.72317 4.90958 9.7724 4.90958 9.80692C4.90701 10.3517 4.90152 10.8964 4.89896 11.4412C4.90069 11.4681 4.89674 11.4952 4.88733 11.5205C4.87793 11.5458 4.86329 11.5689 4.84439 11.5881C4.06904 12.3837 3.29466 13.1796 2.52126 13.9757C2.50991 13.9847 2.49763 13.9925 2.48464 13.9989C2.45424 13.9559 2.47108 13.9096 2.47145 13.867C2.47658 13.3179 2.48463 12.7687 2.48866 12.2192C2.49049 12.1762 2.52235 12.12 2.46413 12.0847Z" fill="white"/>
<path d="M11.8925 0.00366211L13.9714 0.00623592C13.9714 0.663387 13.9714 1.32053 13.9747 1.97769C13.9747 2.08127 13.9527 2.12461 13.8396 2.11873C13.6199 2.10992 13.4027 2.11617 13.1845 2.11654V1.42081L13.1409 1.38886C13.12 1.42727 13.0955 1.46356 13.0677 1.49722C12.6949 1.87336 12.3188 2.24583 11.9486 2.62455C11.8823 2.6925 11.8464 2.69801 11.7805 2.62455C11.645 2.47762 11.5025 2.33436 11.3553 2.19772C11.2912 2.13821 11.3008 2.10809 11.3575 2.05078C11.734 1.67831 12.1068 1.30216 12.4803 0.927122C12.5118 0.895532 12.5418 0.862103 12.5953 0.805534C12.3755 0.805534 12.1818 0.802963 11.9888 0.805534C11.9193 0.805534 11.8823 0.799298 11.8848 0.712976C11.894 0.478988 11.8914 0.241324 11.8925 0.00366211Z" fill="white"/>
</g>
<defs>
<clipPath id="clip0_188_839">
<rect width="14" height="14" fill="white"/>
</clipPath>
</defs>
</svg>
