<svg width="14" height="14" viewBox="0 0 14 14" fill="none" xmlns="http://www.w3.org/2000/svg">
<g clip-path="url(#clip0_188_170)">
<path d="M0.222507 13.9449C1.06481 13.9449 1.907 13.9449 2.74906 13.9449C2.96024 13.9449 2.96463 13.9405 2.96463 13.7334C2.96463 13.1557 2.96463 12.5779 2.96463 12.0002C2.96463 11.7927 2.96134 11.7898 2.74906 11.7898C2.17079 11.7898 1.59266 11.7898 1.01464 11.7898C0.587521 11.7898 0.258308 12.0195 0.0986401 12.4198C0.077083 12.4738 0.0829397 12.552 0 12.5659V13.9865C0.0661325 13.9317 0.146509 13.9449 0.222507 13.9449Z" fill="white"/>
<path d="M2.88352 13.9894C2.97816 13.9894 3.00482 13.9664 3.00409 13.87C2.99971 13.1963 2.99971 12.5226 3.00409 11.849C3.00409 11.7675 2.98691 11.7394 2.89996 11.7394C2.25763 11.7431 1.61531 11.7376 0.972986 11.7434C0.541115 11.7474 0.178659 12.029 0.045298 12.4413C0.0317792 12.483 0.042385 12.5344 0.000732422 12.5659C0.0836722 12.5509 0.0778155 12.4727 0.0993725 12.4198C0.259041 12.0181 0.588253 11.7905 1.01537 11.7898C1.5934 11.7898 2.17153 11.7898 2.74979 11.7898C2.96207 11.7898 2.96536 11.7927 2.96536 12.0002C2.96536 12.5779 2.96536 13.1557 2.96536 13.7334C2.96536 13.9405 2.96098 13.9449 2.74979 13.9449C1.90773 13.9449 1.06555 13.9449 0.223239 13.9449C0.147241 13.9449 0.066865 13.9313 0.000732422 13.9869C0.962395 13.9872 1.92223 13.9858 2.88352 13.9894Z" fill="white"/>
<path d="M6.35715 0.644948C6.39369 1.0295 6.4379 1.41186 6.47078 1.79825C6.48028 1.90781 6.52815 1.95894 6.64543 1.95565C6.8727 1.94944 7.10069 1.95565 7.32831 1.95382C7.49273 1.95382 7.50845 1.94323 7.52489 1.78145C7.56289 1.40164 7.60174 1.02183 7.64144 0.642023C7.64144 0.624128 7.64144 0.646776 7.64144 0.628515C7.67177 0.409395 7.70976 0.190266 7.54461 -3.8147e-06H6.45105C6.28444 0.195014 6.3334 0.42254 6.35715 0.644948Z" fill="white"/>
<path d="M6.28439 0.297277C6.34139 0.839236 6.39522 1.38156 6.44589 1.92425C6.45173 1.98414 6.4722 1.99729 6.52846 1.99729C6.8422 1.99461 7.15605 1.99461 7.47003 1.99729C7.52922 1.99729 7.5431 1.97757 7.55005 1.9206C7.60156 1.39653 7.65381 0.872102 7.71337 0.35023C7.73164 0.191367 7.68888 0.0755959 7.54566 0.00109482C7.71081 0.190269 7.67281 0.410484 7.64249 0.629605C7.63993 0.647865 7.64249 0.625227 7.64249 0.643122C7.60327 1.02293 7.56441 1.40274 7.52593 1.78255C7.50948 1.94433 7.49378 1.95419 7.32936 1.95492C7.10173 1.95492 6.87374 1.95054 6.64648 1.95675C6.52919 1.96004 6.48133 1.90854 6.47183 1.79935C6.43894 1.41442 6.39619 1.0306 6.35819 0.646046C6.33591 0.423639 6.28512 0.196112 6.45319 0.00109482C6.34468 0.0701179 6.26904 0.153023 6.28439 0.297277Z" fill="white"/>
<path d="M10.4876 4.96564C10.4204 4.6271 10.3492 4.2893 10.2841 3.95003C10.274 3.89217 10.2466 3.83871 10.2056 3.79664C9.85798 3.42341 9.51149 3.04931 9.16609 2.67437C9.12606 2.63061 9.07586 2.59738 9.01994 2.5776C8.70864 2.46329 8.3988 2.35044 8.0875 2.23321C8.02868 2.21094 7.99543 2.204 7.95524 2.26973C7.85878 2.42348 7.7119 2.49616 7.52958 2.49616H6.46342C6.38101 2.49961 6.29913 2.48143 6.22592 2.44344C6.15272 2.40544 6.09074 2.34896 6.04616 2.27959C6.00524 2.21788 5.97309 2.20947 5.9055 2.23576C5.60078 2.35336 5.29349 2.46475 4.98621 2.57613C4.9222 2.59888 4.86492 2.6373 4.8196 2.68789C4.52438 3.00999 4.23246 3.33612 3.92701 3.64837C3.79349 3.7826 3.70347 3.95388 3.66868 4.13993C3.54805 4.6855 3.4891 5.24288 3.49293 5.8016C3.5101 7.02612 3.49805 8.25064 3.49805 9.47516C3.49805 10.8629 3.49805 12.2514 3.49805 13.6406C3.49805 13.7531 3.44909 13.9003 3.51778 13.9693C3.58647 14.0383 3.73481 13.9759 3.84662 13.9916C3.97706 14.0095 3.99825 13.9551 3.99789 13.8364C3.99448 11.2646 3.99386 8.69265 3.99605 6.12042C3.99605 5.99333 4.00155 5.86478 4.01214 5.73878C4.17473 3.79518 6.14152 2.52136 7.98227 3.1663C9.21066 3.59651 9.99768 4.72096 9.99877 6.05468C10.0002 8.57676 10.0002 11.0987 9.99877 13.6206C9.99877 13.7385 9.95639 13.8963 10.0156 13.9635C10.085 14.042 10.2476 13.9755 10.3678 13.9912C10.4796 14.0058 10.4982 13.9598 10.4982 13.8576C10.4953 10.9445 10.4945 8.03115 10.4957 5.11757C10.4979 5.06679 10.4952 5.0159 10.4876 4.96564Z" fill="white"/>
<path d="M13.9967 12.7397C13.9909 12.1839 13.5659 11.7511 13.0128 11.7456C12.3756 11.7394 11.7383 11.7456 11.1011 11.742C11.0182 11.742 10.9934 11.7624 10.9937 11.8479C10.9974 12.5257 10.9974 13.2035 10.9937 13.8813C10.9937 13.9763 11.0255 13.9909 11.1099 13.9909C11.5699 13.9872 12.0295 13.9909 12.4892 13.9909C12.9583 13.9909 13.4271 13.9883 13.8959 13.9931C13.9814 13.9931 14.0011 13.9711 14 13.8875C13.9949 13.5019 14.0007 13.1199 13.9967 12.7397Z" fill="white"/>
<path d="M6.38158 9.74138C5.79479 9.74576 5.20763 9.74686 4.62084 9.74138C4.51123 9.74138 4.49771 9.7779 4.49844 9.87359C4.50282 10.3283 4.50063 10.7829 4.50063 11.2376C4.50063 11.7014 4.50064 12.1652 4.49881 12.629C4.49881 12.7072 4.5105 12.7386 4.60038 12.7386C5.28241 12.7345 5.96506 12.7345 6.64831 12.7386C6.7349 12.7386 6.7528 12.7127 6.75243 12.629C6.74878 11.9651 6.75243 11.3012 6.74987 10.6372C6.74987 10.5978 6.76084 10.5551 6.72503 10.5218C6.53248 10.3418 6.4868 10.1102 6.50252 9.86153C6.50836 9.76548 6.47658 9.74065 6.38158 9.74138Z" fill="white"/>
<path d="M6.62825 6.49475C6.29612 6.49986 5.96363 6.49694 5.63114 6.49694C5.29865 6.49694 4.95703 6.50022 4.61979 6.49475C4.52735 6.49292 4.49739 6.51301 4.49812 6.61198C4.50251 7.44926 4.50251 8.28667 4.49812 9.1242C4.49812 9.22426 4.52882 9.24143 4.62052 9.24069C5.20512 9.23668 5.78642 9.23558 6.36956 9.24069C6.47917 9.24069 6.50986 9.21258 6.50292 9.10521C6.48757 8.866 6.53179 8.64213 6.71666 8.46866C6.75612 8.43214 6.75028 8.38796 6.75028 8.34304C6.75028 7.76529 6.74772 7.18716 6.75284 6.60942C6.75393 6.50752 6.7174 6.49475 6.62825 6.49475Z" fill="white"/>
<path d="M9.39083 10.7366C9.05395 10.7409 8.71672 10.7366 8.37984 10.7366C8.04297 10.7366 7.6966 10.7387 7.35497 10.7366C7.27678 10.7366 7.24536 10.7482 7.24536 10.8384C7.24926 11.4393 7.24926 12.0401 7.24536 12.6407C7.24536 12.7218 7.27203 12.7371 7.34657 12.7371C8.0286 12.7344 8.71173 12.7344 9.39595 12.7371C9.48473 12.7371 9.49898 12.7079 9.49861 12.6276C9.49569 12.0316 9.49569 11.4351 9.49861 10.8381C9.49971 10.7545 9.47267 10.7355 9.39083 10.7366Z" fill="white"/>
<path d="M6.60049 3.52638C5.45432 3.70314 4.55441 4.70415 4.50326 5.86367C4.49887 5.95899 4.51055 5.99661 4.62163 5.99551C5.29075 5.98967 5.95987 5.98967 6.62899 5.99551C6.73861 5.99551 6.75395 5.95899 6.75249 5.8644C6.74737 5.49116 6.75029 5.1183 6.75029 4.74543C6.75029 4.38023 6.74262 4.01721 6.75432 3.65383C6.75907 3.51579 6.70865 3.50995 6.60049 3.52638Z" fill="white"/>
<path d="M7.38823 3.52456C7.27862 3.50885 7.24207 3.52456 7.2439 3.64837C7.25303 4.01649 7.24719 4.38498 7.24719 4.75347C7.24719 5.13109 7.24719 5.5087 7.24719 5.88559C7.24719 5.95206 7.24719 5.99515 7.33744 5.99515C8.02945 5.9915 8.72111 5.9926 9.41312 5.99515C9.47853 5.99515 9.49899 5.97652 9.49643 5.91042C9.49033 5.74688 9.46892 5.58426 9.43249 5.4247C9.21144 4.44961 8.36341 3.66516 7.38823 3.52456Z" fill="white"/>
<path d="M9.3802 6.49474C8.70718 6.49913 8.03405 6.49913 7.36079 6.49474C7.27639 6.49474 7.2435 6.50899 7.24459 6.6043C7.24971 7.11339 7.24971 7.62249 7.24459 8.13158C7.24459 8.23456 7.28113 8.24844 7.37028 8.24698C7.70679 8.24223 8.0433 8.24698 8.37981 8.24698C8.71632 8.24698 9.04406 8.24369 9.37618 8.24917C9.46899 8.24917 9.50004 8.22762 9.49931 8.12975C9.49444 7.62528 9.49444 7.12082 9.49931 6.61636C9.50041 6.51921 9.47556 6.49474 9.3802 6.49474Z" fill="white"/>
<path d="M9.39155 8.74C9.04079 8.74438 8.69003 8.74183 8.33927 8.74183C7.98851 8.74183 7.64506 8.74183 7.30052 8.74183C7.0897 8.74183 6.99982 8.8313 6.99908 9.03983C6.99908 9.34002 6.99908 9.64047 6.99908 9.94115C6.99908 10.1482 7.09189 10.241 7.29979 10.2413C7.99692 10.2413 8.69368 10.2413 9.39082 10.2439C9.47266 10.2439 9.50043 10.226 9.50043 10.1395C9.49604 9.70706 9.49604 9.27453 9.50043 8.84189C9.50043 8.75388 9.47156 8.73927 9.39155 8.74ZM8.74191 9.74029C8.49711 9.74808 8.25195 9.74808 8.00642 9.74029C7.85223 9.73591 7.75066 9.63072 7.75066 9.49487C7.75066 9.35901 7.85662 9.2469 8.01409 9.23923C8.13649 9.23375 8.25926 9.23923 8.38166 9.23923C8.50406 9.23923 8.61805 9.23484 8.7357 9.23923C8.8972 9.2469 8.99914 9.34879 8.99767 9.49487C8.99475 9.63255 8.89866 9.73554 8.74191 9.74029Z" fill="white"/>
<path d="M1.78079 6.74454C2.15421 6.74747 2.52798 6.74235 2.90139 6.74783C2.9931 6.74783 3.00479 6.71313 3.00333 6.63827C2.99895 6.42426 3.00333 6.21026 3.00333 5.99625C3.00333 5.78224 2.99968 5.56823 3.00333 5.35459C3.00516 5.27534 2.99128 5.2432 2.90103 5.24503C2.52762 5.2505 2.15385 5.24503 1.78044 5.24795C1.59775 5.24795 1.50311 5.34217 1.50164 5.5255C1.4997 5.83957 1.4997 6.15377 1.50164 6.46808C1.50311 6.6474 1.59738 6.74345 1.78079 6.74454Z" fill="white"/>
<path d="M11.0971 5.24356C11.024 5.24356 10.993 5.25416 10.9937 5.33815C10.9981 5.7764 10.9981 6.21342 10.9937 6.64922C10.9937 6.72847 11.0193 6.74783 11.0949 6.7471C11.4683 6.74381 11.8418 6.7471 12.2155 6.74455C12.3982 6.74455 12.4939 6.64776 12.4954 6.46662C12.4976 6.15255 12.4976 5.83835 12.4954 5.52404C12.4954 5.34143 12.4011 5.24795 12.2174 5.24576C12.0336 5.24356 11.8439 5.24576 11.6569 5.24576C11.4698 5.24576 11.2838 5.24795 11.0971 5.24356Z" fill="white"/>
<path d="M2.90979 9.99484C2.98104 9.99484 3.00443 9.97475 3.00333 9.90244C2.99895 9.68332 3.00333 9.4642 3.00333 9.24727C3.00333 9.03034 3.00041 8.80902 3.00333 8.59209C3.00516 8.5154 2.98325 8.4913 2.90469 8.49239C2.5269 8.49605 2.1491 8.4924 1.77204 8.49459C1.59593 8.49459 1.5042 8.58881 1.50311 8.7663C1.50043 9.08012 1.50043 9.39408 1.50311 9.70815C1.50311 9.89075 1.59592 9.99009 1.77751 9.99228C2.15385 9.99629 2.53346 9.99191 2.90979 9.99484Z" fill="white"/>
<path d="M12.4954 9.72495C12.4983 9.40211 12.4983 9.07915 12.4954 8.75607C12.4954 8.58844 12.3993 8.49568 12.2301 8.49495C11.8523 8.4924 11.4741 8.49714 11.0974 8.49166C11.0068 8.49166 10.9937 8.5238 10.9955 8.60122C11.0003 8.81487 10.9973 9.02888 10.9973 9.24252C10.9973 9.45616 10.9973 9.68076 10.9973 9.89769C10.9973 9.96525 11.0109 9.99484 11.0869 9.99411C11.4694 9.99045 11.8519 9.9941 12.2341 9.99045C12.3985 9.98935 12.4939 9.89111 12.4954 9.72495Z" fill="white"/>
<path d="M11.4964 2.40449C11.4959 2.37017 11.4884 2.33631 11.4745 2.30494C11.4605 2.27357 11.4404 2.24532 11.4153 2.22189C11.2027 2.01043 10.9922 1.79607 10.7774 1.58644C10.6557 1.46811 10.5377 1.46738 10.4179 1.58644C10.1621 1.8377 9.91036 2.09552 9.65314 2.34605C9.59687 2.40047 9.61367 2.43005 9.65752 2.4768C9.92546 2.76214 10.1915 3.0487 10.4555 3.33648C10.4971 3.38177 10.5213 3.39382 10.5728 3.34634C10.8527 3.08632 11.1362 2.83031 11.419 2.57357C11.4425 2.55198 11.4615 2.52591 11.4748 2.49687C11.4881 2.46783 11.4955 2.43641 11.4964 2.40449Z" fill="white"/>
<path d="M4.35049 2.46292C4.38922 2.42165 4.39579 2.39645 4.35049 2.35336C4.08778 2.09443 3.8302 1.83112 3.5664 1.57365C3.45678 1.46665 3.3384 1.46921 3.2277 1.57694C3.00628 1.79314 2.78925 2.01518 2.57002 2.23248C2.52502 2.27659 2.49883 2.3364 2.49695 2.39938C2.49796 2.43198 2.50553 2.46405 2.51921 2.49366C2.5329 2.52328 2.55243 2.54984 2.57661 2.57175C2.85989 2.82885 3.14232 3.08632 3.4239 3.34415C3.46446 3.38067 3.4882 3.39089 3.53095 3.34415C3.80303 3.04858 4.07621 2.75484 4.35049 2.46292Z" fill="white"/>
<path d="M6.75209 13.3386C6.75391 13.2638 6.73492 13.2371 6.6549 13.2375C5.96678 13.2404 5.2789 13.2404 4.59127 13.2375C4.51819 13.2375 4.49737 13.2583 4.49919 13.3299C4.50358 13.5125 4.5054 13.6951 4.49919 13.8758C4.4959 13.9642 4.51965 13.9905 4.6088 13.9891C4.94604 13.9832 5.28292 13.9869 5.62016 13.9869C5.9574 13.9869 6.30341 13.9839 6.64503 13.9887C6.72724 13.9887 6.75464 13.9719 6.75209 13.8842C6.74514 13.7031 6.74734 13.5205 6.75209 13.3386Z" fill="white"/>
<path d="M9.49859 13.3273C9.49859 13.2521 9.47155 13.2378 9.4036 13.2378C8.71548 13.24 8.0276 13.24 7.33997 13.2378C7.25557 13.2378 7.24387 13.2711 7.2457 13.3423C7.25008 13.5106 7.2541 13.6794 7.2457 13.8474C7.23949 13.9569 7.26397 13.9934 7.38308 13.9912C7.7152 13.9817 8.04806 13.988 8.38055 13.988C8.72217 13.988 9.0638 13.988 9.40542 13.988C9.47192 13.988 9.50224 13.9774 9.50005 13.9007C9.49311 13.71 9.49384 13.5187 9.49859 13.3273Z" fill="white"/>
<path d="M4.78308 2.07983C4.81121 2.10795 4.83717 2.09918 4.86932 2.08713C5.19596 1.96539 5.52297 1.84366 5.85034 1.72193C5.89346 1.70586 5.9194 1.68942 5.91355 1.63574C5.88103 1.33517 5.85217 1.03425 5.82038 0.718353L4.17108 1.46629C4.38044 1.67664 4.58213 1.87787 4.78308 2.07983Z" fill="white"/>
<path d="M8.14199 1.72193C8.47083 1.83989 8.79711 1.96149 9.12375 2.08347C9.16029 2.09698 9.18769 2.10831 9.22094 2.07471C9.41824 1.87494 9.61701 1.67664 9.82673 1.46665L8.17706 0.717987C8.14564 1.03133 8.11714 1.32495 8.08609 1.61821C8.08061 1.66897 8.08463 1.70111 8.14199 1.72193Z" fill="white"/>
<path d="M3.18241 3.79408C3.00337 3.63376 2.8258 3.4716 2.63435 3.2974L2.10675 4.74835C2.4027 4.74835 2.68002 4.74835 2.95698 4.74835C3.02493 4.74835 3.05124 4.72717 3.06366 4.65961C3.11043 4.40397 3.16232 4.15234 3.21566 3.89962C3.22137 3.88073 3.22125 3.86055 3.21532 3.84173C3.20939 3.8229 3.19792 3.8063 3.18241 3.79408Z" fill="white"/>
<path d="M11.8915 4.74835L11.3635 3.29886C11.1731 3.47124 10.9926 3.63631 10.81 3.79919C10.7734 3.83206 10.7753 3.86456 10.7844 3.90875C10.837 4.16147 10.8877 4.4148 10.9364 4.66873C10.9459 4.71913 10.9598 4.75054 11.0208 4.75017C11.3058 4.74725 11.5904 4.74835 11.8915 4.74835Z" fill="white"/>
<path d="M2.91314 7.24049C2.63583 7.24304 2.35813 7.24341 2.08081 7.24049C2.01395 7.24049 1.99532 7.26204 1.99678 7.32631C2.00007 7.51731 2.0019 7.70831 1.99678 7.89931C1.99423 7.98148 2.02638 7.99865 2.09946 7.99572C2.23136 7.99134 2.36362 7.99572 2.49552 7.99572C2.63655 7.99572 2.77759 7.99317 2.91862 7.99572C2.98402 7.99572 3.00485 7.97308 3.00376 7.90844C3.00047 7.71269 2.99974 7.51731 3.00376 7.32192C3.00485 7.25035 2.97197 7.24012 2.91314 7.24049Z" fill="white"/>
<path d="M11.092 7.99573C11.365 7.99159 11.638 7.99159 11.9108 7.99573C11.9839 7.99573 12.0025 7.96906 12.001 7.90041C11.997 7.71415 11.9941 7.52753 12.001 7.34128C12.0047 7.24961 11.9671 7.23719 11.8914 7.24012C11.7599 7.24523 11.6276 7.24012 11.4957 7.24012C11.3638 7.24012 11.2224 7.24377 11.0861 7.24012C11.0131 7.23719 10.993 7.26313 10.9944 7.33361C10.9988 7.51986 10.9992 7.70648 10.9944 7.89274C10.9922 7.96724 11.0101 7.99719 11.092 7.99573Z" fill="white"/>
<path d="M3.00298 10.5777C3.00298 10.5171 2.99274 10.4879 2.92259 10.489C2.64089 10.4922 2.35918 10.4912 2.07712 10.489C2.02304 10.489 1.99527 10.4977 1.99637 10.562C2.00039 10.7618 1.99966 10.9615 1.99637 11.1613C1.99637 11.2216 2.01757 11.2394 2.0753 11.2383C2.21596 11.2354 2.357 11.2383 2.49767 11.2383C2.63834 11.2383 2.77061 11.2358 2.90689 11.2383C2.97376 11.2383 3.00517 11.2248 3.00298 11.1485C2.9986 10.959 3.00006 10.7676 3.00298 10.5777Z" fill="white"/>
<path d="M11.0873 11.2394C11.2279 11.2351 11.369 11.2394 11.51 11.2394C11.6415 11.2394 11.7734 11.2365 11.9053 11.2394C11.9707 11.2394 12.0036 11.2292 12.0014 11.1514C11.9959 10.9564 11.9974 10.761 12.0014 10.5671C12.0014 10.5065 11.9824 10.4897 11.924 10.4904C11.6423 10.4926 11.3602 10.4933 11.0785 10.4904C11.0124 10.4904 10.9934 10.5112 10.9948 10.5759C10.9985 10.7665 10.9988 10.9571 10.9948 11.1478C10.9926 11.2183 11.0164 11.2424 11.0873 11.2394Z" fill="white"/>
</g>
<defs>
<clipPath id="clip0_188_170">
<rect width="14" height="14" fill="white"/>
</clipPath>
</defs>
</svg>
