<svg width="16" height="16" viewBox="0 0 16 16" fill="none" xmlns="http://www.w3.org/2000/svg">
<g clip-path="url(#clip0_188_804)">
<path d="M8.00979 -4.44412e-05C3.59373 -0.0150849 0.00100594 3.57307 3.08338e-06 7.99947C-0.000919145 9.0494 0.205043 10.0892 0.606122 11.0596C1.0072 12.0299 1.59554 12.9117 2.33754 13.6547C3.07953 14.3976 3.96064 14.9871 4.93055 15.3895C5.90045 15.792 6.94014 15.9994 7.99024 16C12.4058 16.0155 15.9995 12.4259 16 7.99997C16.0011 6.95002 15.7952 5.91016 15.3942 4.9398C14.9931 3.96944 14.4048 3.08759 13.6628 2.34465C12.9207 1.60172 12.0396 1.01226 11.0696 0.609945C10.0996 0.207632 9.0599 0.000350216 8.00979 -4.44412e-05ZM8.00328 14.4057C4.47775 14.4112 1.5795 11.5089 1.59454 7.98844C1.60958 4.45444 4.48726 1.58472 8.00577 1.59424C11.5378 1.60327 14.4075 4.4765 14.4055 8.00097C14.4035 11.5254 11.5313 14.4012 8.00328 14.4057Z" fill="white"/>
<path d="M10.6031 5.27971C9.38217 5.76551 8.1632 6.25532 6.94274 6.73862C6.89394 6.75667 6.84988 6.78553 6.81384 6.82304C6.7778 6.86055 6.75073 6.90574 6.73465 6.95521C6.46037 7.65007 6.18308 8.34294 5.90378 9.0373C5.67563 9.60834 5.44849 10.1799 5.21382 10.7695C5.23615 10.7719 5.25869 10.7719 5.28102 10.7695C6.55363 10.2604 7.82608 9.75188 9.09836 9.24385C9.13532 9.22919 9.16842 9.20626 9.19511 9.17679C9.2218 9.14732 9.24137 9.11212 9.2523 9.0739C9.74136 7.84827 10.2313 6.62281 10.722 5.39752C10.7395 5.3549 10.7882 5.30677 10.7526 5.26165C10.7024 5.19949 10.6483 5.26166 10.6031 5.27971Z" fill="white"/>
</g>
<defs>
<clipPath id="clip0_188_804">
<rect width="16" height="16" fill="white"/>
</clipPath>
</defs>
</svg>
