<svg width="12" height="13" viewBox="0 0 12 13" fill="none" xmlns="http://www.w3.org/2000/svg">
<g clip-path="url(#clip0_188_182)">
<path d="M11.9613 11.7545C11.9088 11.6962 11.8379 11.7036 11.7702 11.7036C11.2819 11.7036 10.7937 11.6965 10.3058 11.7071C10.1578 11.7102 10.1237 11.6731 10.1237 11.5254C10.1284 7.7759 10.1297 4.0265 10.1276 0.277224C10.1276 0.0297613 10.0975 0 9.85352 0H2.12148C1.86188 0 1.84072 0.0211448 1.84072 0.284662C1.84072 4.0389 1.84177 7.793 1.84386 11.547C1.84386 11.6762 1.8137 11.7091 1.68488 11.7067C1.21501 11.6981 0.747511 11.7032 0.278819 11.7032C0.0752098 11.7032 -0.0109324 11.7482 0.0047298 11.8598C0.0266569 12.0247 0.158216 12.0071 0.275683 12.0071H11.7279C11.7813 12.0107 11.835 12.0078 11.8877 11.9984C11.913 11.9928 11.9364 11.9806 11.9554 11.9629C11.9744 11.9453 11.9884 11.9229 11.9959 11.898C12.0034 11.8732 12.0042 11.8468 11.9981 11.8216C11.992 11.7963 11.9793 11.7732 11.9613 11.7545ZM8.57079 11.7067C6.84325 11.7015 5.11557 11.7015 3.38777 11.7067C3.26325 11.7067 3.2378 11.6707 3.2378 11.5525C3.24093 8.23728 3.24093 4.92303 3.2378 1.60969C3.2378 1.48674 3.26794 1.45933 3.38893 1.45972C5.1217 1.46416 6.85433 1.46416 8.58683 1.45972C8.7043 1.45972 8.72819 1.49182 8.72779 1.60342C8.72414 3.26309 8.72336 4.92277 8.72544 6.58244C8.72544 8.23716 8.72649 9.89187 8.72858 11.5466C8.72819 11.6719 8.70274 11.7091 8.57079 11.7067ZM9.82924 11.5431C9.82924 11.6676 9.80653 11.7161 9.67261 11.7067C9.4878 11.6934 9.30142 11.7012 9.11621 11.7044C9.04887 11.7044 9.01441 11.6864 9.02303 11.6131C9.02518 11.5791 9.02518 11.545 9.02303 11.5109V1.43231C9.02303 1.18093 9.00699 1.16449 8.75913 1.16449H3.2382C2.95119 1.16449 2.93864 1.17662 2.93864 1.45815C2.93864 4.813 2.93983 8.16732 2.94218 11.5211C2.94218 11.6664 2.9132 11.72 2.76049 11.7059C2.59482 11.694 2.4285 11.694 2.26283 11.7059C2.1575 11.7114 2.13478 11.6742 2.13517 11.5744C2.13869 10.5736 2.13752 9.57236 2.13752 8.57155V6.00802C2.13752 4.16223 2.13662 2.31644 2.13479 0.47065C2.13479 0.345353 2.15436 0.29837 2.29728 0.298762C4.75312 0.303983 7.20896 0.303983 9.66479 0.298762C9.80223 0.298762 9.83119 0.337911 9.8308 0.468691C9.82611 4.16001 9.82558 7.85147 9.82924 11.5431Z" fill="white"/>
<path d="M7.31267 3.9457C6.92386 3.65204 6.50215 3.44178 6.00018 3.44139C5.76055 3.44173 5.52361 3.49186 5.30438 3.58861C4.71039 3.84782 4.2605 4.27931 3.87326 4.78637C3.80395 4.87721 3.82902 4.95553 3.89167 5.03737C4.15186 5.38624 4.46558 5.69177 4.82121 5.94264C5.35255 6.30835 5.925 6.48572 6.56128 6.26332C7.23632 6.02839 7.72734 5.55265 8.1467 4.99351C8.20583 4.9152 8.17685 4.83962 8.12204 4.7668C7.8913 4.45718 7.61893 4.18088 7.31267 3.9457ZM7.80761 4.9477C7.41958 5.40856 6.992 5.81499 6.39801 5.9998C5.97356 6.13254 5.57966 6.03661 5.20454 5.82752C4.81573 5.6106 4.49975 5.30754 4.21822 4.9661C4.19081 4.93282 4.15595 4.90462 4.19824 4.8549C4.6125 4.36428 5.06633 3.93043 5.7167 3.77029C5.82441 3.7484 5.93415 3.73816 6.04404 3.73975C6.39879 3.74405 6.73358 3.90342 7.04526 4.12347C7.32262 4.32407 7.57166 4.56113 7.78568 4.82827C7.81504 4.86195 7.8589 4.88936 7.80761 4.9477Z" fill="white"/>
<path d="M4.34978 7.4975C4.24759 7.4975 4.20217 7.56211 4.19865 7.65648C4.19512 7.76768 4.19865 7.87966 4.19865 7.99126C4.19865 8.10285 4.19865 8.20465 4.19865 8.31155C4.19865 8.41844 4.24877 8.48462 4.35527 8.48148C4.45199 8.47874 4.50054 8.40983 4.50132 8.31507C4.50328 8.09659 4.50406 7.8781 4.50132 7.65961C4.4978 7.56681 4.45237 7.49907 4.34978 7.4975Z" fill="white"/>
<path d="M5.99747 4.10898C5.7904 4.11272 5.59291 4.19685 5.44677 4.34359C5.30062 4.49032 5.21727 4.68815 5.21436 4.89523C5.21425 4.99909 5.23465 5.10194 5.27437 5.19791C5.31409 5.29387 5.37235 5.38106 5.44583 5.45446C5.51931 5.52787 5.60655 5.58605 5.70256 5.62567C5.79856 5.6653 5.90145 5.68559 6.00531 5.68538C6.10907 5.68596 6.21192 5.66591 6.30786 5.62639C6.40381 5.58687 6.49095 5.52868 6.56421 5.4552C6.63747 5.38172 6.69539 5.29441 6.73462 5.19835C6.77385 5.10228 6.7936 4.99938 6.79272 4.89562C6.79148 4.68588 6.70702 4.48521 6.5579 4.33771C6.40878 4.19021 6.20721 4.10794 5.99747 4.10898ZM6.01274 5.3878C5.948 5.38858 5.88375 5.37654 5.82368 5.35239C5.7636 5.32823 5.7089 5.29243 5.66271 5.24705C5.61653 5.20167 5.57978 5.14759 5.55458 5.08795C5.52937 5.02831 5.51622 4.96428 5.51586 4.89954C5.51555 4.77127 5.56604 4.64811 5.65629 4.55697C5.74654 4.46584 5.86921 4.41415 5.99747 4.41322C6.06224 4.41181 6.12663 4.42334 6.1869 4.44711C6.24716 4.47088 6.3021 4.50642 6.34847 4.55166C6.39484 4.5969 6.43172 4.65093 6.45697 4.71059C6.48222 4.77026 6.49534 4.83436 6.49553 4.89914C6.49415 5.0273 6.443 5.14991 6.35293 5.24109C6.26285 5.33226 6.14088 5.38487 6.01274 5.3878Z" fill="white"/>
</g>
<defs>
<clipPath id="clip0_188_182">
<rect width="12" height="12.0063" fill="white"/>
</clipPath>
</defs>
</svg>
