<svg width="92" height="101" viewBox="0 0 92 101" fill="none" xmlns="http://www.w3.org/2000/svg">
<g opacity="0.6">
<path d="M22.0539 14.0351L21.761 13.6924L20.5454 12.2719L19.4469 10.9891L18.3455 9.70331L17.5283 9.87319C16.7198 10.0401 15.9934 10.1836 15.3607 10.3008L16.2014 11.6539L17.042 13.0071L17.9472 14.4715L18.1756 14.8376C18.7468 14.7322 19.3913 14.6033 20.1118 14.4568C20.8324 14.3104 21.4534 14.164 22.0539 14.0409V14.0351ZM18.7732 13.8242L18.035 13.1359L18.4363 12.8167L18.7732 13.8242Z" fill="#2C2525"/>
<path d="M91.5137 12.925L91.4991 12.9104C91.1126 12.6049 90.6383 12.4314 90.1458 12.4154L88.5465 12.1225C86.7567 11.8092 86.3789 11.7418 86.2031 11.7242H86.2881C86.2236 11.7242 85.8545 11.6656 84.1 11.4108L81.3172 11.0125C80.9569 10.9627 80.0255 10.8133 78.555 10.5644C76.7184 10.2715 76.1179 10.1544 75.9363 10.1192L74.1085 9.75017C73.1653 9.55686 72.2075 9.34013 71.2174 9.09996C70.2273 8.8598 69.3925 8.64306 68.751 8.46733C68.1095 8.2916 67.5793 8.14515 67.181 8.028C66.7826 7.91085 66.4311 7.80248 66.1675 7.71754L64.1727 7.10541C63.1387 6.77445 62.339 6.505 61.8 6.32048C61.2611 6.13596 60.4819 5.83722 59.4567 5.44182C58.285 4.97906 57.8573 4.8209 57.6377 4.75939C57.418 4.69789 56.8028 4.4255 54.6147 3.49706C52.5643 2.6184 51.334 2.10585 50.9884 1.95062C50.6428 1.79539 49.9017 1.45857 48.8003 0.951878L47.1277 0.175732C46.9007 0.0720983 46.6538 0.019129 46.4042 0.0205034H45.6573C45.4034 0.0204815 45.1526 0.0754337 44.9221 0.181587L43.2817 0.95481C42.2067 1.4615 41.2986 1.8774 40.581 2.18786C39.8633 2.49832 39.1164 2.82635 38.3577 3.14267L35.8123 4.17655C34.9657 4.53094 34.6406 4.65396 34.5351 4.69789C33.8968 4.90259 33.2692 5.13916 32.6546 5.40668C31.6411 5.81086 30.5397 6.22089 29.3768 6.61629C28.2139 7.01168 27.4143 7.28407 27.0335 7.40123C26.6527 7.51838 26.2426 7.64432 25.8208 7.7644C25.399 7.88449 24.7575 8.07193 23.9813 8.30331C23.205 8.53469 22.3233 8.769 21.2806 9.02967L21.1575 9.05896L21.9631 10.3945L22.7715 11.7271L23.6884 13.256L23.9051 13.6104C24.7956 13.3878 25.5767 13.1779 26.2485 12.9807C26.9671 12.7679 27.5295 12.6029 27.9357 12.4857L28.1026 12.4389C28.4483 12.3393 28.7793 12.2397 29.0956 12.146C29.4647 12.0327 30.2029 11.7857 31.3101 11.405C32.4173 11.0242 33.4543 10.6415 34.4209 10.2569C35.3973 9.86635 35.9138 9.67109 35.9704 9.67109C36.0271 9.67109 36.4938 9.48559 37.3706 9.1146L39.714 8.12758C40.414 7.83469 41.1053 7.54181 41.7878 7.24892C42.4703 6.95604 43.3169 6.56357 44.3304 6.07738L44.9162 5.80207L45.8477 5.36274H46.5683L48.1178 6.08031C49.1489 6.55674 49.8323 6.86915 50.1682 7.01755C50.5041 7.16594 51.6348 7.64823 53.5602 8.46441C55.4876 9.27863 56.4836 9.69061 56.548 9.70037C56.6124 9.70037 57.1338 9.90247 58.0829 10.2861C59.032 10.6698 59.7789 10.9451 60.2944 11.1267C60.81 11.3083 61.5569 11.5543 62.5353 11.8677L64.3865 12.4535C64.6472 12.5355 64.9724 12.638 65.3561 12.7464C65.7398 12.8548 66.2348 13.0012 66.85 13.1652C67.4651 13.3292 68.2325 13.5284 69.1728 13.751C70.1131 13.9736 71.027 14.1903 71.9116 14.369L73.6252 14.7175C73.8829 14.7644 74.7061 14.905 76.0886 15.1363C77.4712 15.3677 78.3382 15.5083 78.6868 15.5552L81.2616 15.9271C82.6285 16.1224 83.3198 16.22 83.3354 16.22C83.3511 16.22 84.014 16.3362 85.3244 16.5686C86.4687 16.7638 87.117 16.88 87.2693 16.9171H87.3045L87.2225 20.5987C87.1678 23.053 87.0292 26.224 86.8065 30.1116C86.5839 33.9992 86.4091 36.7171 86.2822 38.2655C86.1533 39.8159 86.0059 41.1417 85.8399 42.2429C85.6739 43.3442 85.4786 44.3898 85.2541 45.3797C85.0314 46.3697 84.7913 47.3665 84.5335 48.3701C84.2757 49.3737 84.0453 50.2524 83.8422 51.0061C83.6469 51.7637 83.4067 52.5789 83.1216 53.4517C82.8365 54.3245 82.6705 54.8517 82.6237 55.0332C82.568 55.2148 82.4831 55.4433 82.3747 55.7245C82.2663 56.0056 82.1345 56.3512 81.988 56.7613C81.8416 57.1713 81.6102 57.7659 81.2967 58.542C80.9833 59.3182 80.7255 59.9332 80.5205 60.3931C80.3154 60.8529 80.0723 61.4064 79.7735 62.0508C79.4748 62.6951 79.0998 63.4654 78.6429 64.3646C78.1859 65.2637 77.9047 65.7968 77.8139 65.9462L76.8033 67.5658C76.2175 68.4972 75.8719 69.0508 75.7518 69.2206C75.6317 69.3905 75.3475 69.8269 74.8965 70.5298C74.4454 71.2327 74.1495 71.675 74.0177 71.8654C73.8859 72.0558 73.6662 72.3516 73.3791 72.744C73.0921 73.1365 72.8636 73.4587 72.6908 73.6813C72.5179 73.9039 72.3129 74.1675 72.0815 74.4721C71.8501 74.7767 71.6304 75.0578 71.4166 75.3127C71.2027 75.5675 71.0387 75.7813 70.9186 75.957C70.7985 76.1327 70.6257 76.3495 70.3914 76.6218L69.9901 77.1022L70.6345 77.8022L71.7007 78.9737L72.7699 80.1453C72.969 79.8817 73.1917 79.6181 73.4143 79.3545C73.7072 79.0206 73.9122 78.7482 74.0704 78.5198C74.17 78.3704 74.3282 78.1712 74.5274 77.934C74.7705 77.6411 75.0283 77.3189 75.286 76.9733C75.5438 76.6277 75.7401 76.3729 75.9275 76.1444C76.115 75.916 76.3933 75.5294 76.7184 75.0696C77.0435 74.6097 77.2486 74.3227 77.3921 74.1265C77.5005 73.98 77.7202 73.6637 78.3939 72.6152C78.9797 71.6955 79.2082 71.3616 79.2932 71.2445C79.3781 71.1273 79.6066 70.7759 80.4648 69.3993L81.5574 67.642C81.6453 67.4985 81.8298 67.1704 82.5123 65.829C83.0132 64.8391 83.438 63.978 83.7631 63.2692C84.0882 62.5604 84.3489 61.9659 84.5774 61.4621C84.8059 60.9583 85.0871 60.2642 85.4298 59.4119C85.7725 58.5596 86.0157 57.9064 86.1943 57.4378C86.373 56.9692 86.4873 56.647 86.5956 56.36C86.7304 56.0203 86.83 55.742 86.8885 55.5077L87.4217 53.8148C87.7146 52.8571 87.9929 51.9492 88.2184 51.1144C88.4439 50.2797 88.69 49.3278 88.9683 48.2471C89.2465 47.1663 89.5131 46.0534 89.7533 44.9785C89.9935 43.9036 90.2161 42.7145 90.3977 41.4961C90.5793 40.2777 90.7463 38.8074 90.8869 37.1028C91.0275 35.3982 91.2179 32.4517 91.4552 28.2635C91.6924 24.0752 91.8447 20.6016 91.9063 17.948L91.9971 13.9765C92 13.7685 91.9578 13.5623 91.8734 13.3722C91.7889 13.1821 91.6642 13.0125 91.5079 12.8753L91.5137 12.925ZM22.4288 9.04431H23.1787L22.4288 9.77946V9.04431ZM23.9754 10.7431L24.4675 11.279L24.5261 11.3405V12.2397L23.9813 11.4987V10.7489L23.9754 10.7431ZM73.1009 77.729L72.9398 77.4361L72.1518 75.9306L72.1254 75.8838L72.2338 75.8252L74.8203 74.4311L73.4729 76.0859L73.259 77.0436L73.1009 77.729Z" fill="#2C2525"/>
<path d="M3.3012 18.9234L3.61169 19.0434L5.02356 19.5999H5.05578C5.05578 19.2426 5.05578 18.9292 5.05578 18.6627V16.9581L5.23739 16.8702C5.55675 16.7678 5.88543 16.6972 6.21867 16.6593C6.75178 16.5773 7.48896 16.4709 8.43021 16.3401C9.37146 16.2093 10.8009 15.9955 12.7185 15.6987L16.8399 15.0543C17.1738 15.0016 17.5517 14.9342 17.9794 14.8552L17.6689 14.5037L16.4415 13.1125L15.2962 11.8121L14.1421 10.5H14.066C13.1638 10.6669 11.6787 10.9129 9.62825 11.2058C7.57782 11.4987 6.02827 11.7564 5.02942 11.897C4.03057 12.0376 3.19868 12.1577 2.6187 12.2485C2.08915 12.2951 1.56969 12.4215 1.07794 12.6234L0.884616 12.7142C0.627796 12.8282 0.408757 13.0129 0.253134 13.2469C0.0975103 13.4808 0.0117397 13.7542 0.00585938 14.0351V15.892C0.00585938 16.3547 0.00585949 16.9434 0.0351514 17.6493L1.66671 18.2907L3.3012 18.9234ZM4.06279 17.8133L3.71714 17.3564L3.36857 16.8966L3.61169 16.3899L4.51095 16.5744L4.28834 17.1924L4.06279 17.8133ZM12.5018 11.6627L13.029 12.1928L13.0495 12.2133L12.203 12.8137L12.3348 12.3071L12.5018 11.6627ZM5.71192 12.4887V13.8213L5.25204 13.379L4.6662 12.8108L5.71192 12.4887ZM1.8659 13.9238L3.60583 13.1301L4.35571 13.502L4.52267 13.584V14.0409L3.76987 15.0865L3.27191 15.7924L3.23383 15.5405L3.06979 14.4627L1.61984 14.0409L1.87468 13.9209" fill="#2C2525"/>
<path d="M69.1904 79.5859L68.6544 78.7453L68.3907 79.0382C68.215 79.2461 67.843 79.6239 67.2718 80.2097C67.0931 80.3913 66.9027 80.5788 66.7035 80.775L67.3802 81.5131L68.4288 82.6553L69.4745 83.7976L69.9754 83.2967C70.3914 82.875 70.7107 82.5499 70.9421 82.298L70.0633 80.9361L69.1904 79.5859ZM68.3614 80.526L68.1828 80.4762L67.8488 80.0926L68.4493 79.9256L68.5694 80.3064L68.669 80.6139L68.3614 80.526Z" fill="#2C2525"/>
<path d="M66.6391 82.2599L66.0884 81.3812L65.2536 82.1896C64.4725 82.9296 63.789 83.5623 63.2031 84.0875C62.6173 84.6147 62.2219 84.9457 62.0315 85.0892C61.8411 85.2327 61.3841 85.5812 60.6753 86.1524C59.9664 86.7235 59.5329 87.0662 59.3747 87.1892L58.203 88.103C57.5879 88.5892 57.1807 88.9026 56.9874 89.0431C56.7941 89.1837 56.5715 89.336 56.3225 89.5352C56.0735 89.7344 55.7366 89.9833 55.2855 90.3143C54.8344 90.6452 54.5064 90.9 54.2779 91.0436C54.0494 91.1871 53.8268 91.3364 53.613 91.4624C53.3991 91.5883 53.0271 91.7992 52.4413 92.1038C51.8555 92.4084 51.5098 92.6164 51.337 92.7218C51.1642 92.8272 50.965 92.9415 50.7512 93.0557C50.5373 93.1699 50.3001 93.3046 50.0599 93.4569C49.8197 93.6092 49.6439 93.7147 49.5355 93.7762C49.3014 93.9044 49.0609 94.0208 48.815 94.1247C48.4459 94.2887 48.0036 94.4771 47.488 94.69C46.9725 94.9067 46.6093 95.0444 46.4101 95.1117L46.1172 95.2113L45.9619 95.1762L45.7862 95.1381C45.5381 95.0798 45.2967 94.9964 45.0656 94.8891C44.8078 94.7739 44.3753 94.5787 43.768 94.3034C43.413 94.1533 43.0659 93.9852 42.7281 93.7996C42.6344 93.7322 42.4 93.5887 42.0222 93.3661L41.1668 92.8741C40.9735 92.7657 40.5956 92.5607 40.0303 92.2561C39.465 91.9515 39.0813 91.7377 38.8586 91.6118C38.636 91.4858 38.4251 91.3511 38.1937 91.1929C37.9623 91.0348 37.7016 90.8503 37.4058 90.6364C37.1099 90.4226 36.7174 90.1298 36.2341 89.7578L34.9628 88.7942C34.6035 88.5228 34.0782 88.1108 33.3869 87.5582C32.6956 87.0047 32.2504 86.6591 32.0571 86.5185C31.8637 86.3779 31.439 86.0499 30.7858 85.5314C30.1326 85.013 29.7664 84.7202 29.6932 84.6528L28.7119 83.7741C28.1261 83.2567 27.7199 82.8867 27.4934 82.6641L25.9731 81.1792C25.192 80.4137 24.7214 79.9451 24.5613 79.7733L23.8729 79.0059C23.58 78.6691 23.3281 78.3968 23.1523 78.1917C22.9766 77.9867 22.8008 77.7729 22.628 77.5474C22.4552 77.3219 22.2677 77.0963 22.0744 76.8562L21.5442 76.2265C21.3889 76.0361 21.2513 75.8691 21.1458 75.7198C21.0404 75.5704 20.8822 75.3771 20.6889 75.134C20.4955 74.8909 20.3286 74.68 20.1909 74.4897L19.6373 73.7486C19.4059 73.4558 19.2301 73.2068 19.113 73.034C18.9958 72.8612 18.7995 72.5888 18.5271 72.2169C18.2547 71.8449 18.0848 71.593 18.0028 71.4524C17.9208 71.3118 17.6923 70.9545 17.3144 70.3687C16.9366 69.783 16.6876 69.4286 16.5675 69.2558C16.4474 69.083 16.1486 68.6114 15.6682 67.8353C15.1879 67.0591 14.8276 66.4763 14.5874 66.078C14.3472 65.6796 14.1363 65.3135 13.9517 64.9679C13.7672 64.6223 13.5094 64.0893 13.1784 63.4098C12.8474 62.7303 12.6805 62.3642 12.6775 62.3495C12.6746 62.3349 12.5106 61.9541 12.1796 61.2102C11.8486 60.4663 11.5937 59.8864 11.4033 59.4529C11.2129 59.0194 10.961 58.3721 10.63 57.4993C10.299 56.6265 9.96511 55.7244 9.62825 54.7286C9.29139 53.7328 8.92524 52.5379 8.52102 51.1203C8.11679 49.7027 7.83265 48.6513 7.66569 47.9571C7.49873 47.263 7.2849 46.2613 6.99198 44.9433C6.69906 43.6253 6.52038 42.7613 6.46472 42.3484C6.44422 42.1785 6.40907 41.8592 6.36513 41.3965C6.30069 40.7433 6.21281 39.8032 6.11029 38.5701C5.92282 36.4614 5.81737 34.871 5.75 33.802C5.68263 32.7329 5.6299 31.5936 5.55374 30.3898C5.47759 29.1861 5.38092 27.2237 5.26083 24.4853C5.22568 23.7648 5.19638 23.0999 5.17295 22.4907H5.14952L3.70836 22.1744L3.45937 22.1187L1.81024 21.7497L0.17868 21.3924C0.17868 21.6589 0.205043 21.9313 0.21676 22.2095C0.357361 25.1384 0.465741 27.3087 0.544829 28.6032C0.623917 29.8978 0.694218 31.122 0.752802 32.2936C0.811386 33.4651 0.946129 35.2078 1.14531 37.4923C1.3445 39.7768 1.47631 41.1651 1.54661 41.6366C1.61691 42.1082 1.80438 43.0806 2.13245 44.5655C2.45173 45.986 2.70364 47.0902 2.88525 47.84C3.06686 48.5898 3.38321 49.7701 3.82552 51.3107C4.26783 52.8512 4.67499 54.1839 5.03821 55.2646C5.40143 56.3454 5.76758 57.3763 6.1308 58.3311C6.49402 59.286 6.78108 60.0094 6.98905 60.4956C7.19702 60.9818 7.47529 61.6056 7.83558 62.4081C8.19588 63.2106 8.30133 63.4625 8.33062 63.5269C8.37456 63.6499 8.43607 63.7847 8.51516 63.9575C8.59424 64.1303 8.74363 64.4407 8.92524 64.8156C9.29432 65.5859 9.57845 66.1541 9.78935 66.5495C10.0003 66.9449 10.2434 67.3696 10.5158 67.8177C10.7882 68.2658 11.1661 68.8867 11.6875 69.7244C12.4022 70.8754 12.6072 71.1888 12.701 71.3236C12.7947 71.4583 13.0876 71.9093 13.4889 72.4951C14.022 73.2947 14.1626 73.5173 14.1978 73.5788C14.2681 73.6989 14.4145 73.9273 14.8363 74.5131C15.1293 74.9056 15.3226 75.1955 15.4456 75.3712C15.5686 75.547 15.7854 75.8457 16.0461 76.1942C16.3068 76.5428 16.4855 76.78 16.6319 76.9733C16.7784 77.1666 16.9893 77.4507 17.2178 77.726C17.4463 78.0013 17.5664 78.1624 17.6747 78.3118C17.7831 78.4612 17.9677 78.6955 18.1522 78.9181C18.3367 79.1407 18.5066 79.3486 18.7117 79.6005C18.9167 79.8524 19.11 80.0984 19.2975 80.3298C19.485 80.5612 19.6959 80.8306 19.8833 81.0679C20.0708 81.3051 20.3462 81.6009 20.683 81.9817L21.4329 82.8105C21.553 82.9453 21.8518 83.2557 23.0176 84.398L24.6667 86.003C24.9157 86.2461 25.3756 86.6649 26.0259 87.2448L27.0833 88.1908C27.1419 88.2436 27.2385 88.3285 28.3341 89.1984C29.0664 89.7841 29.535 90.1385 29.7635 90.3055C29.8924 90.4021 30.2351 90.6628 31.1373 91.3804C31.8901 91.9808 32.473 92.4406 32.8714 92.7394L34.2422 93.7791C34.7753 94.1833 35.2118 94.5084 35.5428 94.7456C35.8738 94.9829 36.1726 95.1996 36.4216 95.3753C36.6705 95.5511 36.9752 95.7385 37.2329 95.8879C37.4907 96.0373 37.9037 96.2657 38.5335 96.6055C39.1633 96.9452 39.5324 97.1502 39.7433 97.2674C39.9542 97.3845 40.2383 97.5603 40.622 97.777L41.2606 98.1665C41.7049 98.4463 42.1735 98.6854 42.6607 98.8812L44.0814 99.5314C44.4358 99.6902 44.8046 99.8148 45.1828 99.9034L45.5401 99.9854C45.8442 100.053 46.1608 100.038 46.457 99.9414L46.785 99.8331C47.0545 99.7481 47.4617 99.587 48.0768 99.3352C48.6421 99.0979 49.1401 98.887 49.5414 98.7025C49.866 98.5678 50.1819 98.4133 50.4875 98.2398L51.0734 97.8795C51.2989 97.7389 51.5127 97.6159 51.7149 97.5134C51.9873 97.3699 52.2363 97.2205 52.4559 97.0975C52.5467 97.0389 52.8162 96.8837 53.5749 96.4737C54.2017 96.1339 54.6265 95.8879 54.8755 95.7561C55.1244 95.6243 55.4086 95.431 55.6868 95.2435C55.9651 95.0561 56.3342 94.7896 56.8321 94.4147C57.3301 94.0398 57.6933 93.7733 57.9657 93.5653C58.2382 93.3574 58.4549 93.1992 58.6512 93.0557C58.8474 92.9122 59.3249 92.5461 60.0162 92.0013L61.2699 91.0143C61.4427 90.8795 61.8909 90.5222 62.6847 89.8867C63.6103 89.1457 63.9559 88.8791 64.0848 88.7883C64.2606 88.6595 64.5857 88.4076 65.485 87.6168C66.1323 87.031 66.8851 86.334 67.7317 85.5256L68.3175 84.9691L67.468 83.6394L66.6391 82.2599ZM36.9049 92.5373H37.9037L38.018 92.7218L39.0959 94.4791L37.4966 93.864L37.2974 93.0557L36.9049 92.5373ZM35.5604 90.8942L36.0525 91.2691L35.8797 91.7113L35.5604 90.8942ZM36.2048 90.8942L36.0964 91.1695L35.9675 91.0758L35.7215 90.8942H36.2048ZM1.61398 22.6606L0.767448 22.9154L1.61398 22.2271L1.82781 22.2886L3.4623 22.7572L3.70836 22.8246L4.66034 23.0999L3.71421 22.9652L3.47695 22.9212L1.85418 22.6869L1.61398 22.6606ZM65.7867 85.9239L65.6607 85.3381L65.4528 84.3599L65.6344 83.9469L65.7867 83.3963L66.1675 83.9323L65.9507 85.0658L65.7867 85.9239Z" fill="#2C2525"/>
<path d="M69.1787 75.8516C69.3984 75.585 69.5653 75.3683 69.6796 75.2043C69.7938 75.0403 69.9491 74.8323 70.1541 74.5804C70.3591 74.3286 70.5642 74.062 70.7868 73.7662C71.0094 73.4704 71.2028 73.2156 71.3727 72.9988C71.5425 72.7821 71.7593 72.4804 72.0317 72.088L72.6381 71.2269C72.7728 71.0414 73.055 70.6099 73.4846 69.9323C73.9152 69.2558 74.1876 68.8311 74.3048 68.6641C74.4219 68.4972 74.7529 67.9612 75.3036 67.0591L76.2673 65.4893C76.3552 65.3448 76.6188 64.8342 77.0582 63.9575C77.4976 63.0808 77.8588 62.33 78.142 61.7052C78.4349 61.0813 78.6634 60.5483 78.8567 60.1002C79.0501 59.6521 79.2961 59.0516 79.5949 58.3018C79.8937 57.5521 80.1163 56.9751 80.2569 56.5767C80.3975 56.1784 80.5205 55.8416 80.626 55.5692C80.7314 55.2968 80.8105 55.0742 80.8632 54.8985C80.9159 54.7228 81.0771 54.2132 81.3407 53.3667C81.6043 52.5203 81.8357 51.7295 82.0261 50.9943C82.2165 50.2592 82.4391 49.404 82.6881 48.4316C82.9371 47.4592 83.1626 46.4898 83.3735 45.532C83.5844 44.5743 83.769 43.558 83.9301 42.4889C84.0912 41.4199 84.223 40.1459 84.3519 38.6316C84.4808 37.1174 84.6448 34.4961 84.8528 30.7237C85.0607 26.9514 85.1955 23.8819 85.2512 21.5007L85.3302 17.9305C85.3302 17.9305 84.6917 17.8075 83.4409 17.5849C82.1901 17.3623 81.5574 17.248 81.5399 17.248C81.5223 17.248 80.8632 17.1543 79.5597 16.9552L77.1021 16.5978C76.7682 16.548 75.9305 16.4133 74.6182 16.1907C73.3059 15.9681 72.5121 15.8305 72.2748 15.7836C72.0376 15.7368 71.481 15.6225 70.6374 15.4497C69.7938 15.2769 68.918 15.0719 68.0217 14.8493C67.1253 14.6267 66.3842 14.4334 65.8013 14.2635C65.2184 14.0937 64.7439 13.9706 64.3748 13.8564C64.0057 13.7422 63.6952 13.6514 63.4492 13.5635L61.6917 12.9778C60.7573 12.6849 60.0455 12.4359 59.5504 12.2602C59.0554 12.0845 58.3524 11.8121 57.4385 11.443C56.5246 11.074 56.0325 10.8895 55.9739 10.8807C55.9153 10.8719 54.9633 10.4736 53.1209 9.6828C51.2784 8.89201 50.1917 8.42339 49.8841 8.2828C49.5765 8.14222 48.9175 7.83469 47.9303 7.37193L46.4657 6.6778H45.7803L44.3157 7.37193C43.3393 7.83469 42.5299 8.20959 41.8874 8.49661C41.2342 8.7895 40.5722 9.08239 39.9044 9.36063C39.2365 9.63887 38.4896 9.9669 37.6577 10.3184C36.8258 10.6698 36.3835 10.8485 36.3249 10.8573C36.2663 10.8661 35.7713 11.0564 34.8456 11.443C33.92 11.8297 32.93 12.1899 31.8725 12.556C30.8151 12.9221 30.115 13.1652 29.7606 13.2765C29.4061 13.3878 29.04 13.4991 28.6504 13.6104C28.2608 13.7217 27.7248 13.8828 27.0394 14.0907C26.3539 14.2987 25.5748 14.5125 24.6374 14.7468L25.7915 16.6564C26.6703 16.4338 27.426 16.2288 28.0646 16.0355C28.7031 15.8422 29.2362 15.687 29.5878 15.5815C29.9393 15.4761 30.3054 15.3706 30.6393 15.2652C30.9733 15.1598 31.6382 14.9313 32.64 14.5857C33.6418 14.2401 34.5762 13.8857 35.452 13.5313C36.3278 13.1769 36.7936 12.9953 36.8521 12.9865C36.9107 12.9778 37.3296 12.8108 38.1117 12.4769L40.2383 11.569C40.871 11.2995 41.4959 11.0281 42.113 10.7548C42.731 10.4824 43.4955 10.128 44.4124 9.68866L45.7891 9.03259H46.4394L47.8395 9.68866C48.771 10.128 49.3891 10.415 49.6879 10.5497C49.9866 10.6845 51.0089 11.1355 52.7489 11.8765C54.4888 12.6175 55.3851 13.0012 55.4496 13.01C55.514 13.0188 55.971 13.1945 56.838 13.543C57.705 13.8916 58.37 14.1464 58.8386 14.3133C59.3073 14.4803 59.9781 14.7058 60.8627 14.9928L62.5382 15.5376L63.417 15.81C63.7685 15.9154 64.2196 16.0443 64.7673 16.1937C65.3151 16.343 66.0181 16.5275 66.8676 16.7384C67.717 16.9493 68.543 17.1367 69.3427 17.3037L70.8483 17.6493C71.0827 17.6942 71.8247 17.8221 73.0745 18.033C74.3243 18.2439 75.1054 18.3717 75.4179 18.4167L77.7436 18.7564L79.6183 19.0288C79.6359 19.0288 80.2364 19.1352 81.4198 19.348C82.6032 19.5609 83.1988 19.6702 83.2066 19.6761L83.1509 23.0501C83.0982 25.3034 82.9732 28.2127 82.776 31.7781C82.5788 35.3435 82.4196 37.8369 82.2985 39.2584C82.1853 40.6799 82.0525 41.8963 81.9002 42.9078C81.7478 43.9192 81.5731 44.8789 81.3758 45.7868C81.1805 46.6909 80.9638 47.6047 80.7256 48.5282C80.4873 49.4518 80.2784 50.2602 80.0987 50.9533C79.9171 51.6504 79.7003 52.3982 79.4484 53.1968C79.1965 53.9954 79.0471 54.4836 79.0003 54.6613C78.9505 54.8253 78.8743 55.0391 78.7747 55.2968C78.6751 55.5546 78.5579 55.8826 78.4232 56.2487C78.2885 56.6148 78.0834 57.1684 77.7993 57.8801C77.5152 58.5918 77.2838 59.1571 77.0992 59.5788C76.9147 60.0006 76.6921 60.5073 76.4255 61.0989C76.1589 61.6905 75.8162 62.3964 75.4003 63.2282C74.9843 64.06 74.7324 64.5432 74.6504 64.6926L73.7365 66.1775C73.2112 67.0289 72.8948 67.5346 72.7874 67.6947C72.68 67.8548 72.4213 68.2551 72.0112 68.8955C71.605 69.5379 71.3385 69.946 71.2115 70.1198C71.0885 70.2926 70.8952 70.565 70.6257 70.934C70.3562 71.303 70.16 71.593 70.0018 71.7951C69.8436 71.9972 69.6591 72.2403 69.4511 72.5214C69.2431 72.8026 69.0439 73.0574 68.8506 73.2917C68.6573 73.526 68.5079 73.7223 68.3995 73.8775C68.2911 74.0327 68.133 74.2407 67.925 74.4896L67.7434 74.7122L68.9941 76.0771L69.1699 75.8633" fill="#2C2525"/>
<path d="M23.788 74.0679C23.6474 73.8951 23.5243 73.7398 23.4247 73.6022C23.3251 73.4645 23.1875 73.2888 23.0117 73.0691C22.836 72.8495 22.6866 72.6532 22.5636 72.4834L22.0627 71.8039C21.8547 71.5256 21.6965 71.306 21.5881 71.1478C21.4798 70.9896 21.2952 70.7407 21.0638 70.398C20.8324 70.0553 20.6625 69.8123 20.5864 69.698C20.5102 69.5838 20.2934 69.247 19.9624 68.7257C19.6314 68.2043 19.3971 67.8646 19.2887 67.7035C19.1803 67.5424 18.9079 67.1177 18.4744 66.406C18.0409 65.6943 17.7157 65.1583 17.5019 64.7951C17.2881 64.4319 17.0918 64.0922 16.9161 63.7759C16.7403 63.4596 16.5177 62.9822 16.216 62.3466C15.9143 61.711 15.7795 61.3859 15.7795 61.3684C15.7795 61.3508 15.6272 61.0052 15.3285 60.3257C15.0297 59.6462 14.7953 59.1102 14.6284 58.7177C14.4614 58.3253 14.2271 57.7249 13.9283 56.9253C13.6295 56.1257 13.3425 55.2705 13.029 54.3625C12.7156 53.4546 12.3963 52.3533 12.0273 51.0529C11.6582 49.7525 11.4033 48.7889 11.254 48.1534C11.1046 47.5178 10.8937 46.5981 10.6271 45.3885C10.3605 44.1789 10.2024 43.3852 10.1526 43.0103C10.1028 42.6354 9.9944 41.4756 9.82744 39.5396C9.66047 37.6036 9.55209 36.148 9.5023 35.1668C9.4525 34.1856 9.39392 33.14 9.32947 32.0388C9.26503 30.9375 9.1713 29.1304 9.05413 26.6204C8.99262 25.3258 8.94868 24.2275 8.91939 23.3196L6.84845 22.8656C6.87481 23.5802 6.90996 24.3827 6.94804 25.2731C7.07107 27.9247 7.16871 29.8333 7.24096 30.999C7.31321 32.1647 7.3757 33.266 7.42843 34.3028C7.48116 35.3435 7.59539 36.8851 7.77114 38.9275C7.9469 40.9698 8.06114 42.1912 8.11386 42.5915C8.16659 42.9917 8.33257 43.8304 8.61182 45.1073C8.89107 46.3843 9.11174 47.3606 9.27382 48.0362C9.432 48.7059 9.70441 49.7281 10.0911 51.1027C10.4777 52.4773 10.8302 53.644 11.1485 54.6027C11.4668 55.5595 11.7841 56.4615 12.1005 57.309C12.4168 58.1564 12.6668 58.7851 12.8504 59.1951C13.0261 59.611 13.2722 60.1783 13.5885 60.8968C13.9078 61.6144 14.066 61.9805 14.066 61.9951C14.066 62.0098 14.2241 62.3554 14.5405 63.0261C14.8569 63.6968 15.1058 64.1976 15.2816 64.5345C15.4573 64.8713 15.6595 65.2286 15.8879 65.6123C16.1164 65.996 16.4738 66.5642 16.919 67.3139C17.3642 68.0637 17.663 68.5236 17.7773 68.6905C17.8915 68.8575 18.1317 69.2177 18.492 69.7683C18.8523 70.319 19.0778 70.647 19.151 70.7993C19.2243 70.9516 19.3971 71.183 19.6519 71.5403C19.9068 71.8976 20.0913 72.1641 20.2056 72.3311C20.3198 72.498 20.4985 72.7323 20.7064 73.0281C20.9144 73.324 21.1019 73.5612 21.2337 73.7457C21.3655 73.9302 21.5266 74.1382 21.7082 74.3695C21.8898 74.6009 22.0392 74.7884 22.1447 74.9319C22.2501 75.0754 22.379 75.2248 22.5284 75.4239C22.6778 75.6231 22.8448 75.8135 23.0293 76.0449C23.2138 76.2762 23.3867 76.5018 23.5565 76.7156C23.7264 76.9294 23.8905 77.1403 24.0574 77.3394C24.2244 77.5386 24.4499 77.8022 24.7429 78.1302L25.3873 78.8624C25.5396 79.0303 25.9888 79.4853 26.7347 80.2273C27.4807 80.9692 27.9689 81.4486 28.1993 81.6653C28.419 81.8821 28.8086 82.2511 29.371 82.7432L30.3083 83.5954C30.3786 83.6599 30.7272 83.943 31.354 84.4448C31.9809 84.9466 32.3861 85.2659 32.5697 85.4026C32.7542 85.5344 33.176 85.8712 33.8351 86.4072C34.4941 86.9431 35.0067 87.3444 35.3436 87.608L36.5563 88.5423C37.025 88.9025 37.397 89.1837 37.6811 89.3917C37.9652 89.5996 38.2142 89.7812 38.4339 89.9306C38.6536 90.0799 38.8645 90.2235 39.0666 90.3377C39.2687 90.4519 39.6524 90.6657 40.1768 90.9615C40.7011 91.2573 41.076 91.4565 41.2606 91.5473L42.0807 92.0247C42.441 92.2414 42.6666 92.382 42.7545 92.4465C43.0787 92.6293 43.4121 92.7955 43.7533 92.9444L44.9953 93.5301C45.2063 93.6421 45.4281 93.7323 45.6573 93.7996L45.9736 93.8728L46.2666 93.7732C46.4599 93.7059 46.8055 93.5712 47.2976 93.3661C47.7897 93.1611 48.2115 92.9766 48.566 92.8155C48.9204 92.6544 49.1518 92.5431 49.2514 92.4787C49.351 92.4142 49.5238 92.3117 49.7523 92.1682C49.9808 92.0247 50.2005 91.8988 50.4114 91.7875C50.6223 91.6762 50.8127 91.5678 50.9796 91.4624C51.1466 91.3569 51.501 91.1695 52.0371 90.8619C52.5731 90.5544 52.9451 90.3582 53.1472 90.241C53.3493 90.1239 53.5573 89.9833 53.7799 89.8339C54.0025 89.6846 54.3248 89.4473 54.7466 89.1251L55.7366 88.3724C55.9739 88.1879 56.1848 88.0268 56.3693 87.8921C56.5539 87.7574 56.9552 87.4557 57.541 86.9812L58.6512 86.1026C58.8006 85.9825 59.2165 85.6486 59.8931 85.098C60.5698 84.5473 61.0033 84.2017 61.1878 84.067C61.3724 83.9323 61.7473 83.6101 62.3127 83.0976C62.878 82.585 63.5283 81.9699 64.2664 81.2524L65.3121 80.2243L64.2811 78.6105C63.9725 78.9171 63.6396 79.2422 63.2822 79.5858C62.5812 80.2692 61.9641 80.855 61.431 81.3432C60.8979 81.8293 60.5522 82.134 60.3706 82.2628C60.189 82.3917 59.7848 82.7168 59.1433 83.2381L57.9716 84.19L56.9229 85.0277C56.3625 85.4729 55.9954 85.7599 55.8216 85.8887C55.6458 86.0176 55.4466 86.1816 55.2357 86.3427C55.0248 86.5038 54.6997 86.7528 54.2984 87.0574C53.8971 87.362 53.5954 87.5816 53.3874 87.7251C53.1794 87.8687 52.9803 87.9975 52.7869 88.1088C52.5936 88.2201 52.245 88.4193 51.7383 88.6946C51.2315 88.9699 50.8976 89.1632 50.7365 89.2628C50.5754 89.3624 50.3996 89.4649 50.2005 89.5557C50.0013 89.6465 49.7933 89.7841 49.5765 89.9189C49.3598 90.0536 49.2016 90.1532 49.0991 90.2117C48.8888 90.328 48.6727 90.4336 48.4517 90.5281C48.1178 90.6804 47.7165 90.8532 47.2508 91.0494C46.785 91.2456 46.4599 91.3745 46.2753 91.436L46 91.5268L45.7071 91.4594C45.4834 91.4045 45.2657 91.328 45.0568 91.231C44.8225 91.1255 44.43 90.9381 43.8851 90.6862C43.5593 90.5458 43.2415 90.3874 42.9331 90.2117C42.8511 90.1502 42.6402 90.0184 42.2975 89.8105C41.9548 89.6025 41.7117 89.4532 41.5213 89.3595L40.4961 88.7913C39.9893 88.4984 39.6378 88.3139 39.4474 88.2055C39.257 88.0971 39.0549 87.9624 38.8469 87.8189C38.6389 87.6754 38.3988 87.5084 38.1351 87.3093C37.8715 87.1101 37.5141 86.8465 37.0718 86.5097L35.9207 85.631C35.5984 85.3821 35.121 85.0042 34.4971 84.4975C33.8732 83.9908 33.4719 83.6745 33.2961 83.5457C33.1204 83.4168 32.7396 83.1151 32.1479 82.6407C31.5562 82.1662 31.2252 81.8967 31.1607 81.8411L30.282 81.0386C29.7567 80.5641 29.3895 80.2243 29.1806 80.0193C28.9716 79.8143 28.5137 79.3613 27.8068 78.6603C27.0979 77.9574 26.6732 77.5269 26.5326 77.3687L25.9058 76.6687C25.6304 76.3583 25.4137 76.1093 25.2555 75.9189C25.0973 75.7285 24.9391 75.5352 24.7809 75.3332L24.283 74.7005C24.1072 74.4808 23.9491 74.2846 23.8055 74.1147" fill="#2C2525"/>
<path d="M66.7094 75.9951L66.1235 76.6746C65.9654 76.8591 65.6285 77.2193 65.113 77.7495C64.9167 77.9516 64.7087 78.1624 64.4861 78.3821L65.7515 79.7616C65.9038 79.6064 66.0444 79.4687 66.1938 79.3106C66.7416 78.7511 67.096 78.3733 67.2659 78.1742C67.4358 77.975 67.6233 77.7465 67.8518 77.4917L66.8148 75.8691L66.7094 75.9921" fill="#2C2525"/>
<path d="M21.1605 15.5435C19.856 15.8129 18.8083 16.013 18.0174 16.1439L14.0806 16.7706C12.2508 17.0577 10.8839 17.2656 9.97974 17.3945C9.0756 17.5234 8.37259 17.6249 7.87072 17.6991C7.5513 17.7331 7.23622 17.7998 6.93045 17.8983L6.76056 17.9832V19.6351C6.76056 19.8284 6.76056 20.0451 6.76056 20.2853L8.86665 21.1141V19.72L9.02775 19.6409C9.31293 19.5453 9.60753 19.4805 9.90651 19.4476C10.3898 19.3715 11.0577 19.2748 11.9071 19.1547C12.7566 19.0347 14.0484 18.8384 15.7825 18.569L19.5084 17.9832C20.2583 17.8621 21.2493 17.6727 22.4815 17.415C23.2275 17.2588 23.911 17.1094 24.532 16.9669L22.9795 15.1481C22.3936 15.2769 21.8078 15.4117 21.137 15.5493" fill="#2C2525"/>
<path d="M18.2635 14.9753L18.1727 14.8317L17.9589 14.8727L18.0819 15.0104L18.2635 14.9753Z" fill="#2C2525"/>
</g>
</svg>
