<?xml version="1.0" encoding="UTF-8" standalone="no"?>
<svg
   width="91.991379"
   height="92.3265"
   viewBox="0 0 91.991379 92.3265"
   fill="none"
   version="1.1"
   id="svg10"
   sodipodi:docname="shield.svg"
   xmlns:inkscape="http://www.inkscape.org/namespaces/inkscape"
   xmlns:sodipodi="http://sodipodi.sourceforge.net/DTD/sodipodi-0.dtd"
   xmlns="http://www.w3.org/2000/svg"
   xmlns:svg="http://www.w3.org/2000/svg">
  <defs
     id="defs10" />
  <sodipodi:namedview
     id="namedview10"
     pagecolor="#505050"
     bordercolor="#ffffff"
     borderopacity="1"
     inkscape:showpageshadow="0"
     inkscape:pageopacity="0"
     inkscape:pagecheckerboard="1"
     inkscape:deskcolor="#d1d1d1"
     inkscape:zoom="2.3366337"
     inkscape:cx="45.792373"
     inkscape:cy="50.5"
     inkscape:window-width="1134"
     inkscape:window-height="1382"
     inkscape:window-x="0"
     inkscape:window-y="0"
     inkscape:window-maximized="1"
     inkscape:current-layer="svg10" />
  <g
     opacity="0.6"
     id="g10"
     transform="matrix(1,0,0,0.92320513,-0.00585938,-0.01890477)"
     inkscape:export-filename="g10.png"
     inkscape:export-xdpi="104.3576"
     inkscape:export-ydpi="104.3576">
    <path
       d="M 22.0539,14.0351 21.761,13.6924 20.5454,12.2719 19.4469,10.9891 18.3455,9.70331 17.5283,9.87319 c -0.8085,0.16691 -1.5349,0.31041 -2.1676,0.42761 l 0.8407,1.3531 0.8406,1.3532 0.9052,1.4644 0.2284,0.3661 c 0.5712,-0.1054 1.2157,-0.2343 1.9362,-0.3808 0.7206,-0.1464 1.3416,-0.2928 1.9421,-0.4159 z m -3.2807,-0.2109 -0.7382,-0.6883 0.4013,-0.3192 z"
       fill="#2c2525"
       id="path1" />
    <path
       d="m 91.5137,12.925 -0.0146,-0.0146 c -0.3865,-0.3055 -0.8608,-0.479 -1.3533,-0.495 l -1.5993,-0.2929 c -1.7898,-0.3133 -2.1676,-0.3807 -2.3434,-0.3983 h 0.085 c -0.0645,0 -0.4336,-0.0586 -2.1881,-0.3134 l -2.7828,-0.3983 c -0.3603,-0.0498 -1.2917,-0.1992 -2.7622,-0.4481 -1.8366,-0.2929 -2.4371,-0.41 -2.6187,-0.4452 L 74.1085,9.75017 C 73.1653,9.55686 72.2075,9.34013 71.2174,9.09996 70.2273,8.8598 69.3925,8.64306 68.751,8.46733 68.1095,8.2916 67.5793,8.14515 67.181,8.028 66.7826,7.91085 66.4311,7.80248 66.1675,7.71754 L 64.1727,7.10541 C 63.1387,6.77445 62.339,6.505 61.8,6.32048 61.2611,6.13596 60.4819,5.83722 59.4567,5.44182 58.285,4.97906 57.8573,4.8209 57.6377,4.75939 57.418,4.69789 56.8028,4.4255 54.6147,3.49706 52.5643,2.6184 51.334,2.10585 50.9884,1.95062 50.6428,1.79539 49.9017,1.45857 48.8003,0.951878 L 47.1277,0.175732 C 46.9007,0.0720983 46.6538,0.019129 46.4042,0.0205034 H 45.6573 C 45.4034,0.0204815 45.1526,0.0754337 44.9221,0.181587 L 43.2817,0.95481 C 42.2067,1.4615 41.2986,1.8774 40.581,2.18786 39.8633,2.49832 39.1164,2.82635 38.3577,3.14267 L 35.8123,4.17655 C 34.9657,4.53094 34.6406,4.65396 34.5351,4.69789 33.8968,4.90259 33.2692,5.13916 32.6546,5.40668 31.6411,5.81086 30.5397,6.22089 29.3768,6.61629 28.2139,7.01168 27.4143,7.28407 27.0335,7.40123 26.6527,7.51838 26.2426,7.64432 25.8208,7.7644 25.399,7.88449 24.7575,8.07193 23.9813,8.30331 23.205,8.53469 22.3233,8.769 21.2806,9.02967 l -0.1231,0.02929 0.8056,1.33554 0.8084,1.3326 0.9169,1.5289 0.2167,0.3544 c 0.8905,-0.2226 1.6716,-0.4325 2.3434,-0.6297 0.7186,-0.2128 1.281,-0.3778 1.6872,-0.495 l 0.1669,-0.0468 c 0.3457,-0.0996 0.6767,-0.1992 0.993,-0.2929 0.3691,-0.1133 1.1073,-0.3603 2.2145,-0.741 1.1072,-0.3808 2.1442,-0.7635 3.1108,-1.1481 0.9764,-0.39055 1.4929,-0.58581 1.5495,-0.58581 0.0567,0 0.5234,-0.1855 1.4002,-0.55649 L 39.714,8.12758 c 0.7,-0.29289 1.3913,-0.58577 2.0738,-0.87866 0.6825,-0.29288 1.5291,-0.68535 2.5426,-1.17154 l 0.5858,-0.27531 0.9315,-0.43933 h 0.7206 l 1.5495,0.71757 c 1.0311,0.47643 1.7145,0.78884 2.0504,0.93724 0.3359,0.14839 1.4666,0.63068 3.392,1.44686 1.9274,0.81422 2.9234,1.2262 2.9878,1.23596 0.0644,0 0.5858,0.2021 1.5349,0.58573 0.9491,0.3837 1.696,0.659 2.2115,0.8406 0.5156,0.1816 1.2625,0.4276 2.2409,0.741 l 1.8512,0.5858 c 0.2607,0.082 0.5859,0.1845 0.9696,0.2929 0.3837,0.1084 0.8787,0.2548 1.4939,0.4188 0.6151,0.164 1.3825,0.3632 2.3228,0.5858 0.9403,0.2226 1.8542,0.4393 2.7388,0.618 l 1.7136,0.3485 c 0.2577,0.0469 1.0809,0.1875 2.4634,0.4188 1.3826,0.2314 2.2496,0.372 2.5982,0.4189 l 2.5748,0.3719 c 1.3669,0.1953 2.0582,0.2929 2.0738,0.2929 0.0157,0 0.6786,0.1162 1.989,0.3486 1.1443,0.1952 1.7926,0.3114 1.9449,0.3485 h 0.0352 l -0.082,3.6816 c -0.0547,2.4543 -0.1933,5.6253 -0.416,9.5129 -0.2226,3.8876 -0.3974,6.6055 -0.5243,8.1539 -0.1289,1.5504 -0.2763,2.8762 -0.4423,3.9774 -0.166,1.1013 -0.3613,2.1469 -0.5858,3.1368 -0.2227,0.99 -0.4628,1.9868 -0.7206,2.9904 -0.2578,1.0036 -0.4882,1.8823 -0.6913,2.636 -0.1953,0.7576 -0.4355,1.5728 -0.7206,2.4456 -0.2851,0.8728 -0.4511,1.4 -0.4979,1.5815 -0.0557,0.1816 -0.1406,0.4101 -0.249,0.6913 -0.1084,0.2811 -0.2402,0.6267 -0.3867,1.0368 -0.1464,0.41 -0.3778,1.0046 -0.6913,1.7807 -0.3134,0.7762 -0.5712,1.3912 -0.7762,1.8511 -0.2051,0.4598 -0.4482,1.0133 -0.747,1.6577 -0.2987,0.6443 -0.6737,1.4146 -1.1306,2.3138 -0.457,0.8991 -0.7382,1.4322 -0.829,1.5816 l -1.0106,1.6196 c -0.5858,0.9314 -0.9314,1.485 -1.0515,1.6548 -0.1201,0.1699 -0.4043,0.6063 -0.8553,1.3092 -0.4511,0.7029 -0.747,1.1452 -0.8788,1.3356 -0.1318,0.1904 -0.3515,0.4862 -0.6386,0.8786 -0.287,0.3925 -0.5155,0.7147 -0.6883,0.9373 -0.1729,0.2226 -0.3779,0.4862 -0.6093,0.7908 -0.2314,0.3046 -0.4511,0.5857 -0.6649,0.8406 -0.2139,0.2548 -0.3779,0.4686 -0.498,0.6443 -0.1201,0.1757 -0.2929,0.3925 -0.5272,0.6648 l -0.4013,0.4804 0.6444,0.7 1.0662,1.1715 1.0692,1.1716 c 0.1991,-0.2636 0.4218,-0.5272 0.6444,-0.7908 0.2929,-0.3339 0.4979,-0.6063 0.6561,-0.8347 0.0996,-0.1494 0.2578,-0.3486 0.457,-0.5858 0.2431,-0.2929 0.5009,-0.6151 0.7586,-0.9607 0.2578,-0.3456 0.4541,-0.6004 0.6415,-0.8289 0.1875,-0.2284 0.4658,-0.615 0.7909,-1.0748 0.3251,-0.4599 0.5302,-0.7469 0.6737,-0.9431 0.1084,-0.1465 0.3281,-0.4628 1.0018,-1.5113 0.5858,-0.9197 0.8143,-1.2536 0.8993,-1.3707 0.0849,-0.1172 0.3134,-0.4686 1.1716,-1.8452 l 1.0926,-1.7573 c 0.0879,-0.1435 0.2724,-0.4716 0.9549,-1.813 0.5009,-0.9899 0.9257,-1.851 1.2508,-2.5598 0.3251,-0.7088 0.5858,-1.3033 0.8143,-1.8071 0.2285,-0.5038 0.5097,-1.1979 0.8524,-2.0502 0.3427,-0.8523 0.5859,-1.5055 0.7645,-1.9741 0.1787,-0.4686 0.293,-0.7908 0.4013,-1.0778 0.1348,-0.3397 0.2344,-0.618 0.2929,-0.8523 l 0.5332,-1.6929 c 0.2929,-0.9577 0.5712,-1.8656 0.7967,-2.7004 0.2255,-0.8347 0.4716,-1.7866 0.7499,-2.8673 0.2782,-1.0808 0.5448,-2.1937 0.785,-3.2686 0.2402,-1.0749 0.4628,-2.264 0.6444,-3.4824 0.1816,-1.2184 0.3486,-2.6887 0.4892,-4.3933 0.1406,-1.7046 0.331,-4.6511 0.5683,-8.8393 0.2372,-4.1883 0.3895,-7.6619 0.4511,-10.3155 l 0.0908,-3.9715 C 92,13.7685 91.9578,13.5623 91.8734,13.3722 91.7889,13.1821 91.6642,13.0125 91.5079,12.8753 Z M 22.4288,9.04431 h 0.7499 l -0.7499,0.73515 z m 1.5466,1.69879 0.4921,0.5359 0.0586,0.0615 v 0.8992 l -0.5448,-0.741 v -0.7498 z m 49.1255,66.9859 -0.1611,-0.2929 -0.788,-1.5055 -0.0264,-0.0468 0.1084,-0.0586 2.5865,-1.3941 -1.3474,1.6548 -0.2139,0.9577 z"
       fill="#2c2525"
       id="path2" />
    <path
       d="m 3.3012,18.9234 0.31049,0.12 1.41187,0.5565 h 0.03222 c 0,-0.3573 0,-0.6707 0,-0.9372 v -1.7046 l 0.18161,-0.0879 c 0.31936,-0.1024 0.64804,-0.173 0.98128,-0.2109 0.53311,-0.082 1.27029,-0.1884 2.21154,-0.3192 0.94125,-0.1308 2.37069,-0.3446 4.28829,-0.6414 l 4.1214,-0.6444 c 0.3339,-0.0527 0.7118,-0.1201 1.1395,-0.1991 L 17.6689,14.5037 16.4415,13.1125 15.2962,11.8121 14.1421,10.5 H 14.066 c -0.9022,0.1669 -2.3873,0.4129 -4.43775,0.7058 -2.05043,0.2929 -3.59998,0.5506 -4.59883,0.6912 -0.99885,0.1406 -1.83074,0.2607 -2.41072,0.3515 -0.52955,0.0466 -1.04901,0.173 -1.54076,0.3749 l -0.193324,0.0908 c -0.25682,0.114 -0.475859,0.2987 -0.631482,0.5327 -0.1556237,0.2339 -0.2413943,0.5073 -0.24727462,0.7882 v 1.8569 c 0,0.4627 1.1e-7,1.0514 0.02929202,1.7573 L 1.66671,18.2907 Z m 0.76159,-1.1101 -0.34565,-0.4569 -0.34857,-0.4598 0.24312,-0.5067 0.89926,0.1845 -0.22261,0.618 z m 8.43901,-6.1506 0.5272,0.5301 0.0205,0.0205 -0.8465,0.6004 0.1318,-0.5066 z m -6.78988,0.826 v 1.3326 L 5.25204,13.379 4.6662,12.8108 Z m -3.84602,1.4351 1.73993,-0.7937 0.74988,0.3719 0.16696,0.082 v 0.4569 l -0.7528,1.0456 -0.49796,0.7059 -0.03808,-0.2519 -0.16404,-1.0778 -1.44995,-0.4218 0.25484,-0.12"
       fill="#2c2525"
       id="path3" />
    <path
       d="m 69.1904,79.5859 -0.536,-0.8406 -0.2637,0.2929 c -0.1757,0.2079 -0.5477,0.5857 -1.1189,1.1715 -0.1787,0.1816 -0.3691,0.3691 -0.5683,0.5653 l 0.6767,0.7381 1.0486,1.1422 1.0457,1.1423 0.5009,-0.5009 c 0.416,-0.4217 0.7353,-0.7468 0.9667,-0.9987 l -0.8788,-1.3619 z m -0.829,0.9401 -0.1786,-0.0498 -0.334,-0.3836 0.6005,-0.167 0.1201,0.3808 0.0996,0.3075 z"
       fill="#2c2525"
       id="path4" />
    <path
       d="m 66.6391,82.2599 -0.5507,-0.8787 -0.8348,0.8084 c -0.7811,0.74 -1.4646,1.3727 -2.0505,1.8979 -0.5858,0.5272 -0.9812,0.8582 -1.1716,1.0017 -0.1904,0.1435 -0.6474,0.492 -1.3562,1.0632 -0.7089,0.5711 -1.1424,0.9138 -1.3006,1.0368 L 58.203,88.103 c -0.6151,0.4862 -1.0223,0.7996 -1.2156,0.9401 -0.1933,0.1406 -0.4159,0.2929 -0.6649,0.4921 -0.249,0.1992 -0.5859,0.4481 -1.037,0.7791 -0.4511,0.3309 -0.7791,0.5857 -1.0076,0.7293 -0.2285,0.1435 -0.4511,0.2928 -0.6649,0.4188 -0.2139,0.1259 -0.5859,0.3368 -1.1717,0.6414 -0.5858,0.3046 -0.9315,0.5126 -1.1043,0.618 -0.1728,0.1054 -0.372,0.2197 -0.5858,0.3339 -0.2139,0.1142 -0.4511,0.2489 -0.6913,0.4012 -0.2402,0.1523 -0.416,0.2578 -0.5244,0.3193 -0.2341,0.1282 -0.4746,0.2446 -0.7205,0.3485 -0.3691,0.164 -0.8114,0.3524 -1.327,0.5653 -0.5155,0.2167 -0.8787,0.3544 -1.0779,0.4217 l -0.2929,0.0996 -0.1553,-0.0351 -0.1757,-0.0381 C 45.5381,95.0798 45.2967,94.9964 45.0656,94.8891 44.8078,94.7739 44.3753,94.5787 43.768,94.3034 43.413,94.1533 43.0659,93.9852 42.7281,93.7996 42.6344,93.7322 42.4,93.5887 42.0222,93.3661 l -0.8554,-0.492 c -0.1933,-0.1084 -0.5712,-0.3134 -1.1365,-0.618 -0.5653,-0.3046 -0.949,-0.5184 -1.1717,-0.6443 -0.2226,-0.126 -0.4335,-0.2607 -0.6649,-0.4189 -0.2314,-0.1581 -0.4921,-0.3426 -0.7879,-0.5565 -0.2959,-0.2138 -0.6884,-0.5066 -1.1717,-0.8786 L 34.9628,88.7942 C 34.6035,88.5228 34.0782,88.1108 33.3869,87.5582 32.6956,87.0047 32.2504,86.6591 32.0571,86.5185 31.8637,86.3779 31.439,86.0499 30.7858,85.5314 30.1326,85.013 29.7664,84.7202 29.6932,84.6528 l -0.9813,-0.8787 c -0.5858,-0.5174 -0.992,-0.8874 -1.2185,-1.11 L 25.9731,81.1792 C 25.192,80.4137 24.7214,79.9451 24.5613,79.7733 L 23.8729,79.0059 C 23.58,78.6691 23.3281,78.3968 23.1523,78.1917 22.9766,77.9867 22.8008,77.7729 22.628,77.5474 22.4552,77.3219 22.2677,77.0963 22.0744,76.8562 L 21.5442,76.2265 C 21.3889,76.0361 21.2513,75.8691 21.1458,75.7198 21.0404,75.5704 20.8822,75.3771 20.6889,75.134 20.4955,74.8909 20.3286,74.68 20.1909,74.4897 L 19.6373,73.7486 C 19.4059,73.4558 19.2301,73.2068 19.113,73.034 18.9958,72.8612 18.7995,72.5888 18.5271,72.2169 18.2547,71.8449 18.0848,71.593 18.0028,71.4524 17.9208,71.3118 17.6923,70.9545 17.3144,70.3687 16.9366,69.783 16.6876,69.4286 16.5675,69.2558 16.4474,69.083 16.1486,68.6114 15.6682,67.8353 15.1879,67.0591 14.8276,66.4763 14.5874,66.078 14.3472,65.6796 14.1363,65.3135 13.9517,64.9679 13.7672,64.6223 13.5094,64.0893 13.1784,63.4098 12.8474,62.7303 12.6805,62.3642 12.6775,62.3495 12.6746,62.3349 12.5106,61.9541 12.1796,61.2102 11.8486,60.4663 11.5937,59.8864 11.4033,59.4529 11.2129,59.0194 10.961,58.3721 10.63,57.4993 10.299,56.6265 9.96511,55.7244 9.62825,54.7286 9.29139,53.7328 8.92524,52.5379 8.52102,51.1203 8.11679,49.7027 7.83265,48.6513 7.66569,47.9571 7.49873,47.263 7.2849,46.2613 6.99198,44.9433 6.69906,43.6253 6.52038,42.7613 6.46472,42.3484 6.44422,42.1785 6.40907,41.8592 6.36513,41.3965 6.30069,40.7433 6.21281,39.8032 6.11029,38.5701 5.92282,36.4614 5.81737,34.871 5.75,33.802 5.68263,32.7329 5.6299,31.5936 5.55374,30.3898 5.47759,29.1861 5.38092,27.2237 5.26083,24.4853 5.22568,23.7648 5.19638,23.0999 5.17295,22.4907 H 5.14952 L 3.70836,22.1744 3.45937,22.1187 1.81024,21.7497 0.17868,21.3924 c 0,0.2665 0.026363,0.5389 0.03808,0.8171 0.140601,2.9289 0.248981,5.0992 0.328069,6.3937 0.079088,1.2946 0.149389,2.5188 0.207973,3.6904 0.058584,1.1715 0.193327,2.9142 0.392508,5.1987 0.19919,2.2845 0.331,3.6728 0.4013,4.1443 0.0703,0.4716 0.25777,1.444 0.58584,2.9289 0.31928,1.4205 0.57119,2.5247 0.7528,3.2745 0.18161,0.7498 0.49796,1.9301 0.94027,3.4707 0.44231,1.5405 0.84947,2.8732 1.21269,3.9539 0.36322,1.0808 0.72937,2.1117 1.09259,3.0665 0.36322,0.9549 0.65028,1.6783 0.85825,2.1645 0.20797,0.4862 0.48624,1.11 0.84653,1.9125 0.3603,0.8025 0.46575,1.0544 0.49504,1.1188 0.04394,0.123 0.10545,0.2578 0.18454,0.4306 0.07908,0.1728 0.22847,0.4832 0.41008,0.8581 0.36908,0.7703 0.65321,1.3385 0.86411,1.7339 0.21095,0.3954 0.45405,0.8201 0.72645,1.2682 0.2724,0.4481 0.6503,1.069 1.1717,1.9067 0.7147,1.151 0.9197,1.4644 1.0135,1.5992 0.0937,0.1347 0.3866,0.5857 0.7879,1.1715 0.5331,0.7996 0.6737,1.0222 0.7089,1.0837 0.0703,0.1201 0.2167,0.3485 0.6385,0.9343 0.293,0.3925 0.4863,0.6824 0.6093,0.8581 0.123,0.1758 0.3398,0.4745 0.6005,0.823 0.2607,0.3486 0.4394,0.5858 0.5858,0.7791 0.1465,0.1933 0.3574,0.4774 0.5859,0.7527 0.2285,0.2753 0.3486,0.4364 0.4569,0.5858 0.1084,0.1494 0.293,0.3837 0.4775,0.6063 0.1845,0.2226 0.3544,0.4305 0.5595,0.6824 0.205,0.2519 0.3983,0.4979 0.5858,0.7293 0.1875,0.2314 0.3984,0.5008 0.5858,0.7381 0.1875,0.2372 0.4629,0.533 0.7997,0.9138 l 0.7499,0.8288 c 0.1201,0.1348 0.4189,0.4452 1.5847,1.5875 l 1.6491,1.605 c 0.249,0.2431 0.7089,0.6619 1.3592,1.2418 l 1.0574,0.946 c 0.0586,0.0528 0.1552,0.1377 1.2508,1.0076 0.7323,0.5857 1.2009,0.9401 1.4294,1.1071 0.1289,0.0966 0.4716,0.3573 1.3738,1.0749 0.7528,0.6004 1.3357,1.0602 1.7341,1.359 l 1.3708,1.0397 c 0.5331,0.4042 0.9696,0.7293 1.3006,0.9665 0.331,0.2373 0.6298,0.454 0.8788,0.6297 0.2489,0.1758 0.5536,0.3632 0.8113,0.5126 0.2578,0.1494 0.6708,0.3778 1.3006,0.7176 0.6298,0.3397 0.9989,0.5447 1.2098,0.6619 0.2109,0.1171 0.495,0.2929 0.8787,0.5096 l 0.6386,0.3895 c 0.4443,0.2798 0.9129,0.5189 1.4001,0.7147 l 1.4207,0.6502 c 0.3544,0.1588 0.7232,0.2834 1.1014,0.372 l 0.3573,0.082 c 0.3041,0.0676 0.6207,0.0526 0.9169,-0.044 l 0.328,-0.1083 c 0.2695,-0.085 0.6767,-0.2461 1.2918,-0.4979 0.5653,-0.2373 1.0633,-0.4482 1.4646,-0.6327 0.3246,-0.1347 0.6405,-0.2892 0.9461,-0.4627 l 0.5859,-0.3603 c 0.2255,-0.1406 0.4393,-0.2636 0.6415,-0.3661 0.2724,-0.1435 0.5214,-0.2929 0.741,-0.4159 0.0908,-0.0586 0.3603,-0.2138 1.119,-0.6238 0.6268,-0.3398 1.0516,-0.5858 1.3006,-0.7176 0.2489,-0.1318 0.5331,-0.3251 0.8113,-0.5126 0.2783,-0.1874 0.6474,-0.4539 1.1453,-0.8288 0.498,-0.3749 0.8612,-0.6414 1.1336,-0.8494 0.2725,-0.2079 0.4892,-0.3661 0.6855,-0.5096 0.1962,-0.1435 0.6737,-0.5096 1.365,-1.0544 l 1.2537,-0.987 c 0.1728,-0.1348 0.621,-0.4921 1.4148,-1.1276 0.9256,-0.741 1.2712,-1.0076 1.4001,-1.0984 0.1758,-0.1288 0.5009,-0.3807 1.4002,-1.1715 0.6473,-0.5858 1.4001,-1.2828 2.2467,-2.0912 L 68.3175,84.9691 67.468,83.6394 Z M 36.9049,92.5373 h 0.9988 l 0.1143,0.1845 1.0779,1.7573 -1.5993,-0.6151 -0.1992,-0.8083 z m -1.3445,-1.6431 0.4921,0.3749 -0.1728,0.4422 z m 0.6444,0 -0.1084,0.2753 -0.1289,-0.0937 -0.246,-0.1816 z M 1.61398,22.6606 0.767448,22.9154 1.61398,22.2271 1.82781,22.2886 3.4623,22.7572 3.70836,22.8246 4.66034,23.0999 3.71421,22.9652 3.47695,22.9212 1.85418,22.6869 Z m 64.17272,63.2633 -0.126,-0.5858 -0.2079,-0.9782 0.1816,-0.413 0.1523,-0.5506 0.3808,0.536 -0.2168,1.1335 z"
       fill="#2c2525"
       id="path5" />
    <path
       d="m 69.1787,75.8516 c 0.2197,-0.2666 0.3866,-0.4833 0.5009,-0.6473 0.1142,-0.164 0.2695,-0.372 0.4745,-0.6239 0.205,-0.2518 0.4101,-0.5184 0.6327,-0.8142 0.2226,-0.2958 0.416,-0.5506 0.5859,-0.7674 0.1698,-0.2167 0.3866,-0.5184 0.659,-0.9108 l 0.6064,-0.8611 c 0.1347,-0.1855 0.4169,-0.617 0.8465,-1.2946 0.4306,-0.6765 0.703,-1.1012 0.8202,-1.2682 0.1171,-0.1669 0.4481,-0.7029 0.9988,-1.605 l 0.9637,-1.5698 c 0.0879,-0.1445 0.3515,-0.6551 0.7909,-1.5318 0.4394,-0.8767 0.8006,-1.6275 1.0838,-2.2523 0.2929,-0.6239 0.5214,-1.1569 0.7147,-1.605 0.1934,-0.4481 0.4394,-1.0486 0.7382,-1.7984 0.2988,-0.7497 0.5214,-1.3267 0.662,-1.7251 0.1406,-0.3983 0.2636,-0.7351 0.3691,-1.0075 0.1054,-0.2724 0.1845,-0.495 0.2372,-0.6707 0.0527,-0.1757 0.2139,-0.6853 0.4775,-1.5318 0.2636,-0.8464 0.495,-1.6372 0.6854,-2.3724 0.1904,-0.7351 0.413,-1.5903 0.662,-2.5627 0.249,-0.9724 0.4745,-1.9418 0.6854,-2.8996 0.2109,-0.9577 0.3955,-1.974 0.5566,-3.0431 0.1611,-1.069 0.2929,-2.343 0.4218,-3.8573 0.1289,-1.5142 0.2929,-4.1355 0.5009,-7.9079 0.2079,-3.7723 0.3427,-6.8418 0.3984,-9.223 l 0.079,-3.5702 c 0,0 -0.6385,-0.123 -1.8893,-0.3456 -1.2508,-0.2226 -1.8835,-0.3369 -1.901,-0.3369 -0.0176,0 -0.6767,-0.0937 -1.9802,-0.2928 L 77.1021,16.5978 C 76.7682,16.548 75.9305,16.4133 74.6182,16.1907 73.3059,15.9681 72.5121,15.8305 72.2748,15.7836 72.0376,15.7368 71.481,15.6225 70.6374,15.4497 69.7938,15.2769 68.918,15.0719 68.0217,14.8493 67.1253,14.6267 66.3842,14.4334 65.8013,14.2635 65.2184,14.0937 64.7439,13.9706 64.3748,13.8564 64.0057,13.7422 63.6952,13.6514 63.4492,13.5635 L 61.6917,12.9778 C 60.7573,12.6849 60.0455,12.4359 59.5504,12.2602 59.0554,12.0845 58.3524,11.8121 57.4385,11.443 56.5246,11.074 56.0325,10.8895 55.9739,10.8807 55.9153,10.8719 54.9633,10.4736 53.1209,9.6828 51.2784,8.89201 50.1917,8.42339 49.8841,8.2828 49.5765,8.14222 48.9175,7.83469 47.9303,7.37193 L 46.4657,6.6778 h -0.6854 l -1.4646,0.69413 c -0.9764,0.46276 -1.7858,0.83766 -2.4283,1.12468 -0.6532,0.29289 -1.3152,0.58578 -1.983,0.86402 -0.6679,0.27824 -1.4148,0.60627 -2.2467,0.95777 -0.8319,0.3514 -1.2742,0.5301 -1.3328,0.5389 -0.0586,0.0088 -0.5536,0.1991 -1.4793,0.5857 -0.9256,0.3867 -1.9156,0.7469 -2.9731,1.113 -1.0574,0.3661 -1.7575,0.6092 -2.1119,0.7205 -0.3545,0.1113 -0.7206,0.2226 -1.1102,0.3339 -0.3896,0.1113 -0.9256,0.2724 -1.611,0.4803 -0.6855,0.208 -1.4646,0.4218 -2.402,0.6561 l 1.1541,1.9096 c 0.8788,-0.2226 1.6345,-0.4276 2.2731,-0.6209 0.6385,-0.1933 1.1716,-0.3485 1.5232,-0.454 0.3515,-0.1054 0.7176,-0.2109 1.0515,-0.3163 0.334,-0.1054 0.9989,-0.3339 2.0007,-0.6795 1.0018,-0.3456 1.9362,-0.7 2.812,-1.0544 0.8758,-0.3544 1.3416,-0.536 1.4001,-0.5448 0.0586,-0.0087 0.4775,-0.1757 1.2596,-0.5096 l 2.1266,-0.9079 c 0.6327,-0.2695 1.2576,-0.5409 1.8747,-0.8142 0.618,-0.2724 1.3825,-0.6268 2.2994,-1.06614 l 1.3767,-0.65607 h 0.6503 l 1.4001,0.65607 c 0.9315,0.43934 1.5496,0.72634 1.8484,0.86104 0.2987,0.1348 1.321,0.5858 3.061,1.3268 1.7399,0.741 2.6362,1.1247 2.7007,1.1335 0.0644,0.0088 0.5214,0.1845 1.3884,0.533 0.867,0.3486 1.532,0.6034 2.0006,0.7703 0.4687,0.167 1.1395,0.3925 2.0241,0.6795 l 1.6755,0.5448 0.8788,0.2724 c 0.3515,0.1054 0.8026,0.2343 1.3503,0.3837 0.5478,0.1493 1.2508,0.3338 2.1003,0.5447 0.8494,0.2109 1.6754,0.3983 2.4751,0.5653 l 1.5056,0.3456 c 0.2344,0.0449 0.9764,0.1728 2.2262,0.3837 1.2498,0.2109 2.0309,0.3387 2.3434,0.3837 l 2.3257,0.3397 1.8747,0.2724 c 0.0176,0 0.6181,0.1064 1.8015,0.3192 1.1834,0.2129 1.779,0.3222 1.7868,0.3281 l -0.0557,3.374 c -0.0527,2.2533 -0.1777,5.1626 -0.3749,8.728 -0.1972,3.5654 -0.3564,6.0588 -0.4775,7.4803 -0.1132,1.4215 -0.246,2.6379 -0.3983,3.6494 -0.1524,1.0114 -0.3271,1.9711 -0.5244,2.879 -0.1953,0.9041 -0.412,1.8179 -0.6502,2.7414 -0.2383,0.9236 -0.4472,1.732 -0.6269,2.4251 -0.1816,0.6971 -0.3984,1.4449 -0.6503,2.2435 -0.2519,0.7986 -0.4013,1.2868 -0.4481,1.4645 -0.0498,0.164 -0.126,0.3778 -0.2256,0.6355 -0.0996,0.2578 -0.2168,0.5858 -0.3515,0.9519 -0.1347,0.3661 -0.3398,0.9197 -0.6239,1.6314 -0.2841,0.7117 -0.5155,1.277 -0.7001,1.6987 -0.1845,0.4218 -0.4071,0.9285 -0.6737,1.5201 -0.2666,0.5916 -0.6093,1.2975 -1.0252,2.1293 -0.416,0.8318 -0.6679,1.315 -0.7499,1.4644 l -0.9139,1.4849 c -0.5253,0.8514 -0.8417,1.3571 -0.9491,1.5172 -0.1074,0.1601 -0.3661,0.5604 -0.7762,1.2008 -0.4062,0.6424 -0.6727,1.0505 -0.7997,1.2243 -0.123,0.1728 -0.3163,0.4452 -0.5858,0.8142 -0.2695,0.369 -0.4657,0.659 -0.6239,0.8611 -0.1582,0.2021 -0.3427,0.4452 -0.5507,0.7263 -0.208,0.2812 -0.4072,0.536 -0.6005,0.7703 -0.1933,0.2343 -0.3427,0.4306 -0.4511,0.5858 -0.1084,0.1552 -0.2665,0.3632 -0.4745,0.6121 l -0.1816,0.2226 1.2507,1.3649 0.1758,-0.2138"
       fill="#2c2525"
       id="path6" />
    <path
       d="m 23.788,74.0679 c -0.1406,-0.1728 -0.2637,-0.3281 -0.3633,-0.4657 -0.0996,-0.1377 -0.2372,-0.3134 -0.413,-0.5331 -0.1757,-0.2196 -0.3251,-0.4159 -0.4481,-0.5857 l -0.5009,-0.6795 c -0.208,-0.2783 -0.3662,-0.4979 -0.4746,-0.6561 -0.1083,-0.1582 -0.2929,-0.4071 -0.5243,-0.7498 -0.2314,-0.3427 -0.4013,-0.5857 -0.4774,-0.7 -0.0762,-0.1142 -0.293,-0.451 -0.624,-0.9723 -0.331,-0.5214 -0.5653,-0.8611 -0.6737,-1.0222 -0.1084,-0.1611 -0.3808,-0.5858 -0.8143,-1.2975 -0.4335,-0.7117 -0.7587,-1.2477 -0.9725,-1.6109 -0.2138,-0.3632 -0.4101,-0.7029 -0.5858,-1.0192 -0.1758,-0.3163 -0.3984,-0.7937 -0.7001,-1.4293 -0.3017,-0.6356 -0.4365,-0.9607 -0.4365,-0.9782 0,-0.0176 -0.1523,-0.3632 -0.451,-1.0427 -0.2988,-0.6795 -0.5332,-1.2155 -0.7001,-1.608 -0.167,-0.3924 -0.4013,-0.9928 -0.7001,-1.7924 C 13.6295,56.1257 13.3425,55.2705 13.029,54.3625 12.7156,53.4546 12.3963,52.3533 12.0273,51.0529 11.6582,49.7525 11.4033,48.7889 11.254,48.1534 11.1046,47.5178 10.8937,46.5981 10.6271,45.3885 10.3605,44.1789 10.2024,43.3852 10.1526,43.0103 10.1028,42.6354 9.9944,41.4756 9.82744,39.5396 9.66047,37.6036 9.55209,36.148 9.5023,35.1668 9.4525,34.1856 9.39392,33.14 9.32947,32.0388 9.26503,30.9375 9.1713,29.1304 9.05413,26.6204 8.99262,25.3258 8.94868,24.2275 8.91939,23.3196 l -2.07094,-0.454 c 0.02636,0.7146 0.06151,1.5171 0.09959,2.4075 0.12303,2.6516 0.22067,4.5602 0.29292,5.7259 0.07225,1.1657 0.13474,2.267 0.18747,3.3038 0.05273,1.0407 0.16696,2.5823 0.34271,4.6247 0.17576,2.0423 0.29,3.2637 0.34272,3.664 0.05273,0.4002 0.21871,1.2389 0.49796,2.5158 0.27925,1.277 0.49992,2.2533 0.662,2.9289 0.15818,0.6697 0.43059,1.6919 0.81728,3.0665 0.3866,1.3746 0.7391,2.5413 1.0574,3.5 0.3183,0.9568 0.6356,1.8588 0.952,2.7063 0.3163,0.8474 0.5663,1.4761 0.7499,1.8861 0.1757,0.4159 0.4218,0.9832 0.7381,1.7017 0.3193,0.7176 0.4775,1.0837 0.4775,1.0983 0,0.0147 0.1581,0.3603 0.4745,1.031 0.3164,0.6707 0.5653,1.1715 0.7411,1.5084 0.1757,0.3368 0.3779,0.6941 0.6063,1.0778 0.2285,0.3837 0.5859,0.9519 1.0311,1.7016 0.4452,0.7498 0.744,1.2097 0.8583,1.3766 0.1142,0.167 0.3544,0.5272 0.7147,1.0778 0.3603,0.5507 0.5858,0.8787 0.659,1.031 0.0733,0.1523 0.2461,0.3837 0.5009,0.741 0.2549,0.3573 0.4394,0.6238 0.5537,0.7908 0.1142,0.1669 0.2929,0.4012 0.5008,0.697 0.208,0.2959 0.3955,0.5331 0.5273,0.7176 0.1318,0.1845 0.2929,0.3925 0.4745,0.6238 0.1816,0.2314 0.331,0.4189 0.4365,0.5624 0.1054,0.1435 0.2343,0.2929 0.3837,0.492 0.1494,0.1992 0.3164,0.3896 0.5009,0.621 0.1845,0.2313 0.3574,0.4569 0.5272,0.6707 0.1699,0.2138 0.334,0.4247 0.5009,0.6238 0.167,0.1992 0.3925,0.4628 0.6855,0.7908 l 0.6444,0.7322 c 0.1523,0.1679 0.6015,0.6229 1.3474,1.3649 0.746,0.7419 1.2342,1.2213 1.4646,1.438 0.2197,0.2168 0.6093,0.5858 1.1717,1.0779 l 0.9373,0.8522 c 0.0703,0.0645 0.4189,0.3476 1.0457,0.8494 0.6269,0.5018 1.0321,0.8211 1.2157,0.9578 0.1845,0.1318 0.6063,0.4686 1.2654,1.0046 0.659,0.5359 1.1716,0.9372 1.5085,1.2008 l 1.2127,0.9343 c 0.4687,0.3602 0.8407,0.6414 1.1248,0.8494 0.2841,0.2079 0.5331,0.3895 0.7528,0.5389 0.2197,0.1493 0.4306,0.2929 0.6327,0.4071 0.2021,0.1142 0.5858,0.328 1.1102,0.6238 0.5243,0.2958 0.8992,0.495 1.0838,0.5858 l 0.8201,0.4774 c 0.3603,0.2167 0.5859,0.3573 0.6738,0.4218 0.3242,0.1828 0.6576,0.349 0.9988,0.4979 l 1.242,0.5857 c 0.211,0.112 0.4328,0.2022 0.662,0.2695 l 0.3163,0.0732 0.293,-0.0996 c 0.1933,-0.0673 0.5389,-0.202 1.031,-0.4071 0.4921,-0.205 0.9139,-0.3895 1.2684,-0.5506 0.3544,-0.1611 0.5858,-0.2724 0.6854,-0.3368 0.0996,-0.0645 0.2724,-0.167 0.5009,-0.3105 0.2285,-0.1435 0.4482,-0.2694 0.6591,-0.3807 0.2109,-0.1113 0.4013,-0.2197 0.5682,-0.3251 0.167,-0.1055 0.5214,-0.2929 1.0575,-0.6005 0.536,-0.3075 0.908,-0.5037 1.1101,-0.6209 0.2021,-0.1171 0.4101,-0.2577 0.6327,-0.4071 0.2226,-0.1493 0.5449,-0.3866 0.9667,-0.7088 l 0.99,-0.7527 c 0.2373,-0.1845 0.4482,-0.3456 0.6327,-0.4803 0.1846,-0.1347 0.5859,-0.4364 1.1717,-0.9109 l 1.1102,-0.8786 c 0.1494,-0.1201 0.5653,-0.454 1.2419,-1.0046 0.6767,-0.5507 1.1102,-0.8963 1.2947,-1.031 0.1846,-0.1347 0.5595,-0.4569 1.1249,-0.9694 0.5653,-0.5126 1.2156,-1.1277 1.9537,-1.8452 l 1.0457,-1.0281 -1.031,-1.6138 c -0.3086,0.3066 -0.6415,0.6317 -0.9989,0.9753 -0.701,0.6834 -1.3181,1.2692 -1.8512,1.7574 -0.5331,0.4861 -0.8788,0.7908 -1.0604,0.9196 -0.1816,0.1289 -0.5858,0.454 -1.2273,0.9753 l -1.1717,0.9519 -1.0487,0.8377 c -0.5604,0.4452 -0.9275,0.7322 -1.1013,0.861 -0.1758,0.1289 -0.375,0.2929 -0.5859,0.454 -0.2109,0.1611 -0.536,0.4101 -0.9373,0.7147 -0.4013,0.3046 -0.703,0.5242 -0.911,0.6677 -0.208,0.1436 -0.4071,0.2724 -0.6005,0.3837 -0.1933,0.1113 -0.5419,0.3105 -1.0486,0.5858 -0.5068,0.2753 -0.8407,0.4686 -1.0018,0.5682 -0.1611,0.0996 -0.3369,0.2021 -0.536,0.2929 -0.1992,0.0908 -0.4072,0.2284 -0.624,0.3632 -0.2167,0.1347 -0.3749,0.2343 -0.4774,0.2928 -0.2103,0.1163 -0.4264,0.2219 -0.6474,0.3164 -0.3339,0.1523 -0.7352,0.3251 -1.2009,0.5213 -0.4658,0.1962 -0.7909,0.3251 -0.9755,0.3866 L 46,91.5268 45.7071,91.4594 C 45.4834,91.4045 45.2657,91.328 45.0568,91.231 44.8225,91.1255 44.43,90.9381 43.8851,90.6862 c -0.3258,-0.1404 -0.6436,-0.2988 -0.952,-0.4745 -0.082,-0.0615 -0.2929,-0.1933 -0.6356,-0.4012 -0.3427,-0.208 -0.5858,-0.3573 -0.7762,-0.451 l -1.0252,-0.5682 c -0.5068,-0.2929 -0.8583,-0.4774 -1.0487,-0.5858 -0.1904,-0.1084 -0.3925,-0.2431 -0.6005,-0.3866 -0.208,-0.1435 -0.4481,-0.3105 -0.7118,-0.5096 -0.2636,-0.1992 -0.621,-0.4628 -1.0633,-0.7996 L 35.9207,85.631 c -0.3223,-0.2489 -0.7997,-0.6268 -1.4236,-1.1335 -0.6239,-0.5067 -1.0252,-0.823 -1.201,-0.9518 -0.1757,-0.1289 -0.5565,-0.4306 -1.1482,-0.905 -0.5917,-0.4745 -0.9227,-0.744 -0.9872,-0.7996 L 30.282,81.0386 c -0.5253,-0.4745 -0.8925,-0.8143 -1.1014,-1.0193 -0.209,-0.205 -0.6669,-0.658 -1.3738,-1.359 -0.7089,-0.7029 -1.1336,-1.1334 -1.2742,-1.2916 l -0.6268,-0.7 C 25.6304,76.3583 25.4137,76.1093 25.2555,75.9189 25.0973,75.7285 24.9391,75.5352 24.7809,75.3332 L 24.283,74.7005 c -0.1758,-0.2197 -0.3339,-0.4159 -0.4775,-0.5858"
       fill="#2c2525"
       id="path7" />
    <path
       d="m 66.7094,75.9951 -0.5859,0.6795 c -0.1581,0.1845 -0.495,0.5447 -1.0105,1.0749 -0.1963,0.2021 -0.4043,0.4129 -0.6269,0.6326 l 1.2654,1.3795 c 0.1523,-0.1552 0.2929,-0.2929 0.4423,-0.451 0.5478,-0.5595 0.9022,-0.9373 1.0721,-1.1364 0.1699,-0.1992 0.3574,-0.4277 0.5859,-0.6825 l -1.037,-1.6226 -0.1054,0.123"
       fill="#2c2525"
       id="path8" />
    <path
       d="m 21.1605,15.5435 c -1.3045,0.2694 -2.3522,0.4695 -3.1431,0.6004 l -3.9368,0.6267 c -1.8298,0.2871 -3.1967,0.495 -4.10086,0.6239 -0.90414,0.1289 -1.60715,0.2304 -2.10902,0.3046 -0.31942,0.034 -0.6345,0.1007 -0.94027,0.1992 l -0.16989,0.0849 v 1.6519 c 0,0.1933 0,0.41 0,0.6502 l 2.10609,0.8288 V 19.72 l 0.1611,-0.0791 c 0.28518,-0.0956 0.57978,-0.1604 0.87876,-0.1933 0.48329,-0.0761 1.15119,-0.1728 2.00059,-0.2929 0.8495,-0.12 2.1413,-0.3163 3.8754,-0.5857 l 3.7259,-0.5858 c 0.7499,-0.1211 1.7409,-0.3105 2.9731,-0.5682 0.746,-0.1562 1.4295,-0.3056 2.0505,-0.4481 l -1.5525,-1.8188 c -0.5859,0.1288 -1.1717,0.2636 -1.8425,0.4012"
       fill="#2c2525"
       id="path9" />
    <path
       d="m 18.2635,14.9753 -0.0908,-0.1436 -0.2138,0.041 0.123,0.1377 z"
       fill="#2c2525"
       id="path10" />
  </g>
</svg>
